M48
; DRILL file {KiCad 9.0.1} date 2025-04-15T18:06:26+0900
; FORMAT={-:-/ absolute / metric / decimal}
; #@! TF.CreationDate,2025-04-15T18:06:26+09:00
; #@! TF.GenerationSoftware,Kicad,Pcbnew,9.0.1
; #@! TF.FileFunction,Plated,1,2,PTH
FMAT,2
METRIC
; #@! TA.AperFunction,Plated,PTH,ComponentDrill
T1C1.000
; #@! TA.AperFunction,Plated,PTH,ComponentDrill
T2C1.020
%
G90
G05
T1
X149.5Y-99.96
X149.5Y-102.5
X155.0Y-100.0
X155.0Y-102.54
X160.5Y-100.0
X160.5Y-102.54
X165.5Y-97.46
X165.5Y-100.0
X165.5Y-102.54
X174.5Y-65.84
X174.5Y-68.38
X174.5Y-70.92
X174.5Y-73.46
X174.5Y-76.0
X174.5Y-78.54
X174.5Y-81.08
X174.5Y-83.62
X174.5Y-86.16
X174.5Y-88.7
T2
X115.775Y-55.39
X115.775Y-57.93
X115.775Y-60.47
X115.775Y-63.01
X115.775Y-65.55
X115.775Y-68.09
X115.775Y-70.63
X115.775Y-73.17
X115.775Y-75.71
X115.775Y-78.25
X115.775Y-80.79
X115.775Y-83.33
X115.775Y-85.87
X115.775Y-88.41
X115.775Y-90.95
X141.175Y-55.39
X141.175Y-57.93
X141.175Y-60.47
X141.175Y-63.01
X141.175Y-65.55
X141.175Y-68.09
X141.175Y-70.63
X141.175Y-73.17
X141.175Y-75.71
X141.175Y-78.25
X141.175Y-80.79
X141.175Y-83.33
X141.175Y-85.87
X141.175Y-88.41
X141.175Y-90.95
M30
