%TF.GenerationSoftware,KiCad,Pcbnew,9.0.1*%
%TF.CreationDate,2025-04-15T18:06:31+09:00*%
%TF.ProjectId,drone,64726f6e-652e-46b6-9963-61645f706362,rev?*%
%TF.SameCoordinates,Original*%
%TF.FileFunction,Copper,L2,Bot*%
%TF.FilePolarity,Positive*%
%FSLAX46Y46*%
G04 Gerber Fmt 4.6, Leading zero omitted, Abs format (unit mm)*
G04 Created by KiCad (PCBNEW 9.0.1) date 2025-04-15 18:06:31*
%MOMM*%
%LPD*%
G01*
G04 APERTURE LIST*
%TA.AperFunction,ComponentPad*%
%ADD10R,1.700000X1.700000*%
%TD*%
%TA.AperFunction,ComponentPad*%
%ADD11C,1.700000*%
%TD*%
%TA.AperFunction,ComponentPad*%
%ADD12R,2.000000X2.000000*%
%TD*%
%TA.AperFunction,ComponentPad*%
%ADD13C,2.000000*%
%TD*%
%TA.AperFunction,Conductor*%
%ADD14C,0.200000*%
%TD*%
G04 APERTURE END LIST*
D10*
%TO.P,U1,1,Vin*%
%TO.N,3V*%
X174500000Y-65840000D03*
D11*
%TO.P,U1,2,GND*%
%TO.N,GND*%
X174500000Y-68380000D03*
%TO.P,U1,3,SCL*%
%TO.N,Net-(U1-SCL)*%
X174500000Y-70920000D03*
%TO.P,U1,4,SDA*%
%TO.N,Net-(U1-SDA)*%
X174500000Y-73460000D03*
%TO.P,U1,5*%
%TO.N,N/C*%
X174500000Y-76000000D03*
%TO.P,U1,6*%
X174500000Y-78540000D03*
%TO.P,U1,7*%
X174500000Y-81080000D03*
%TO.P,U1,8*%
X174500000Y-83620000D03*
%TO.P,U1,9*%
X174500000Y-86160000D03*
%TO.P,U1,10*%
X174500000Y-88700000D03*
%TD*%
D10*
%TO.P,ESC4,1,VCC*%
%TO.N,Net-(ESC4-PWM)*%
X165500000Y-97460000D03*
D11*
%TO.P,ESC4,2,GND*%
%TO.N,5Vin*%
X165500000Y-100000000D03*
%TO.P,ESC4,3,A*%
%TO.N,GND*%
X165500000Y-102540000D03*
%TD*%
D10*
%TO.P,ESC1,1,VCC*%
%TO.N,Net-(ESC1-PWM)*%
X149500000Y-99960000D03*
D11*
%TO.P,ESC1,2,GND*%
%TO.N,GND*%
X149500000Y-102500000D03*
%TD*%
D10*
%TO.P,ESC2,1,VCC*%
%TO.N,Net-(ESC2-PWM)*%
X155000000Y-100000000D03*
D11*
%TO.P,ESC2,2,GND*%
%TO.N,GND*%
X155000000Y-102540000D03*
%TD*%
D12*
%TO.P,U2,1,3V3*%
%TO.N,3V*%
X141175000Y-90950000D03*
D13*
%TO.P,U2,2*%
%TO.N,GND*%
X141175000Y-88410000D03*
%TO.P,U2,3,D15*%
%TO.N,unconnected-(U2-D15-Pad3)*%
X141175000Y-85870000D03*
%TO.P,U2,4,D2*%
%TO.N,unconnected-(U2-D2-Pad4)*%
X141175000Y-83330000D03*
%TO.P,U2,5,D4*%
%TO.N,unconnected-(U2-D4-Pad5)*%
X141175000Y-80790000D03*
%TO.P,U2,6,RX2*%
%TO.N,unconnected-(U2-RX2-Pad6)*%
X141175000Y-78250000D03*
%TO.P,U2,7,TX2*%
%TO.N,unconnected-(U2-TX2-Pad7)*%
X141175000Y-75710000D03*
%TO.P,U2,8,D5*%
%TO.N,unconnected-(U2-D5-Pad8)*%
X141175000Y-73170000D03*
%TO.P,U2,9,D18*%
%TO.N,unconnected-(U2-D18-Pad9)*%
X141175000Y-70630000D03*
%TO.P,U2,10,D19*%
%TO.N,unconnected-(U2-D19-Pad10)*%
X141175000Y-68090000D03*
%TO.P,U2,11,D21*%
%TO.N,Net-(U1-SDA)*%
X141175000Y-65550000D03*
%TO.P,U2,12,RX0*%
%TO.N,N/C*%
X141175000Y-63010000D03*
%TO.P,U2,13,TX0*%
%TO.N,unconnected-(U2-TX0-Pad13)*%
X141175000Y-60470000D03*
%TO.P,U2,14,D22*%
%TO.N,Net-(U1-SCL)*%
X141175000Y-57930000D03*
%TO.P,U2,15,D23*%
%TO.N,unconnected-(U2-D23-Pad15)*%
X141175000Y-55390000D03*
%TO.P,U2,16,EN*%
%TO.N,unconnected-(U2-EN-Pad16)*%
X115775000Y-55390000D03*
%TO.P,U2,17,VP*%
%TO.N,unconnected-(U2-VP-Pad17)*%
X115775000Y-57930000D03*
%TO.P,U2,18,VN*%
%TO.N,unconnected-(U2-VN-Pad18)*%
X115775000Y-60470000D03*
%TO.P,U2,19,D34*%
%TO.N,unconnected-(U2-D34-Pad19)*%
X115775000Y-63010000D03*
%TO.P,U2,20,D35*%
%TO.N,unconnected-(U2-D35-Pad20)*%
X115775000Y-65550000D03*
%TO.P,U2,21,D32*%
%TO.N,N/C*%
X115775000Y-68090000D03*
%TO.P,U2,22,D33*%
X115775000Y-70630000D03*
%TO.P,U2,23,D25*%
%TO.N,Net-(ESC1-PWM)*%
X115775000Y-73170000D03*
%TO.P,U2,24,D26*%
%TO.N,Net-(ESC4-PWM)*%
X115775000Y-75710000D03*
%TO.P,U2,25,D27*%
%TO.N,Net-(ESC3-PWM)*%
X115775000Y-78250000D03*
%TO.P,U2,26,D14*%
%TO.N,N/C*%
X115775000Y-80790000D03*
%TO.P,U2,27,D12*%
%TO.N,Net-(ESC2-PWM)*%
X115775000Y-83330000D03*
%TO.P,U2,28,D13*%
%TO.N,unconnected-(U2-D13-Pad28)*%
X115775000Y-85870000D03*
%TO.P,U2,29,GND*%
%TO.N,GND*%
X115775000Y-88410000D03*
%TO.P,U2,30,VIN*%
%TO.N,5Vin*%
X115775000Y-90950000D03*
%TD*%
D10*
%TO.P,ESC3,1,VCC*%
%TO.N,Net-(ESC3-PWM)*%
X160500000Y-100000000D03*
D11*
%TO.P,ESC3,2,GND*%
%TO.N,GND*%
X160500000Y-102540000D03*
%TD*%
D14*
%TO.N,Net-(U1-SCL)*%
X169459100Y-57930000D02*
X141175000Y-57930000D01*
X176052000Y-69368000D02*
X176052000Y-64522900D01*
X174500000Y-70920000D02*
X176052000Y-69368000D01*
X176052000Y-64522900D02*
X169459100Y-57930000D01*
%TO.N,GND*%
X149500000Y-102500000D02*
X125500000Y-102500000D01*
X175651000Y-64689000D02*
X164896000Y-64689000D01*
X149540000Y-102540000D02*
X149500000Y-102500000D01*
X174500000Y-68380000D02*
X175651000Y-67229000D01*
X125500000Y-98135000D02*
X115775000Y-88410000D01*
X165500000Y-102540000D02*
X149540000Y-102540000D01*
X125500000Y-102500000D02*
X125500000Y-98135000D01*
X164896000Y-64689000D02*
X141175000Y-88410000D01*
X175651000Y-67229000D02*
X175651000Y-64689000D01*
%TO.N,Net-(U1-SDA)*%
X139874000Y-54851108D02*
X139874000Y-64249000D01*
X174500000Y-73460000D02*
X176453000Y-71507000D01*
X139874000Y-64249000D02*
X141175000Y-65550000D01*
X166185200Y-54089000D02*
X140636108Y-54089000D01*
X176453000Y-64356800D02*
X166185200Y-54089000D01*
X176453000Y-71507000D02*
X176453000Y-64356800D01*
X140636108Y-54089000D02*
X139874000Y-54851108D01*
%TO.N,3V*%
X166285000Y-65840000D02*
X141175000Y-90950000D01*
X174500000Y-65840000D02*
X166285000Y-65840000D01*
%TO.N,Net-(ESC4-PWM)*%
X166308960Y-104493000D02*
X125791700Y-104493000D01*
X167453000Y-99413000D02*
X167453000Y-103348960D01*
X114073000Y-77412000D02*
X115775000Y-75710000D01*
X125791700Y-104493000D02*
X114073000Y-92774300D01*
X114073000Y-92774300D02*
X114073000Y-77412000D01*
X165500000Y-97460000D02*
X167453000Y-99413000D01*
X167453000Y-103348960D02*
X166308960Y-104493000D01*
%TO.N,Net-(ESC2-PWM)*%
X153889000Y-101111000D02*
X133556000Y-101111000D01*
X155000000Y-100000000D02*
X153889000Y-101111000D01*
X133556000Y-101111000D02*
X115775000Y-83330000D01*
%TO.N,Net-(ESC3-PWM)*%
X160500000Y-100000000D02*
X161651000Y-98849000D01*
X167052000Y-99924240D02*
X167052000Y-103182860D01*
X125957800Y-104092000D02*
X114474000Y-92608200D01*
X167052000Y-103182860D02*
X166142860Y-104092000D01*
X114474000Y-92608200D02*
X114474000Y-79551000D01*
X161651000Y-98849000D02*
X165976760Y-98849000D01*
X114474000Y-79551000D02*
X115775000Y-78250000D01*
X166142860Y-104092000D02*
X125957800Y-104092000D01*
X165976760Y-98849000D02*
X167052000Y-99924240D01*
%TO.N,Net-(ESC1-PWM)*%
X144422709Y-99960000D02*
X117632709Y-73170000D01*
X149500000Y-99960000D02*
X144422709Y-99960000D01*
X117632709Y-73170000D02*
X115775000Y-73170000D01*
%TO.N,5Vin*%
X165976760Y-103691000D02*
X126123900Y-103691000D01*
X166651000Y-103016760D02*
X165976760Y-103691000D01*
X165500000Y-100000000D02*
X166651000Y-101151000D01*
X166651000Y-101151000D02*
X166651000Y-103016760D01*
X126123900Y-103691000D02*
X115775000Y-93342100D01*
X115775000Y-93342100D02*
X115775000Y-90950000D01*
%TD*%
%TA.AperFunction,Conductor*%
%TO.N,GND*%
G36*
X117480703Y-85885384D02*
G01*
X117487181Y-85891416D01*
X133071139Y-101475374D01*
X133071149Y-101475385D01*
X133075479Y-101479715D01*
X133075480Y-101479716D01*
X133187284Y-101591520D01*
X133187286Y-101591521D01*
X133187290Y-101591524D01*
X133324209Y-101670573D01*
X133324216Y-101670577D01*
X133436019Y-101700534D01*
X133476942Y-101711500D01*
X133476943Y-101711500D01*
X148184271Y-101711500D01*
X148251310Y-101731185D01*
X148297065Y-101783989D01*
X148307009Y-101853147D01*
X148294756Y-101891795D01*
X148248904Y-101981782D01*
X148183242Y-102183869D01*
X148183242Y-102183872D01*
X148150000Y-102393753D01*
X148150000Y-102606246D01*
X148183241Y-102816126D01*
X148219651Y-102928181D01*
X148221646Y-102998023D01*
X148185566Y-103057856D01*
X148122865Y-103088684D01*
X148101720Y-103090500D01*
X126423998Y-103090500D01*
X126356959Y-103070815D01*
X126336317Y-103054181D01*
X116411819Y-93129683D01*
X116378334Y-93068360D01*
X116375500Y-93042002D01*
X116375500Y-92404067D01*
X116395185Y-92337028D01*
X116443205Y-92293582D01*
X116561433Y-92233343D01*
X116752510Y-92094517D01*
X116919517Y-91927510D01*
X117058343Y-91736433D01*
X117165568Y-91525992D01*
X117238553Y-91301368D01*
X117275500Y-91068097D01*
X117275500Y-90831902D01*
X117238553Y-90598631D01*
X117165566Y-90374003D01*
X117058342Y-90163566D01*
X116919517Y-89972490D01*
X116752510Y-89805483D01*
X116693282Y-89762451D01*
X116650617Y-89707122D01*
X116642550Y-89652404D01*
X116644104Y-89632657D01*
X115912575Y-88901128D01*
X115971853Y-88885245D01*
X116088147Y-88818102D01*
X116183102Y-88723147D01*
X116250245Y-88606853D01*
X116266128Y-88547575D01*
X116997658Y-89279105D01*
X116997658Y-89279104D01*
X117057914Y-89196169D01*
X117057918Y-89196163D01*
X117165102Y-88985802D01*
X117238065Y-88761247D01*
X117275000Y-88528052D01*
X117275000Y-88291947D01*
X117238065Y-88058752D01*
X117165102Y-87834197D01*
X117057914Y-87623828D01*
X116997658Y-87540894D01*
X116997658Y-87540893D01*
X116266128Y-88272424D01*
X116250245Y-88213147D01*
X116183102Y-88096853D01*
X116088147Y-88001898D01*
X115971853Y-87934755D01*
X115912574Y-87918871D01*
X116644105Y-87187340D01*
X116642551Y-87167594D01*
X116656915Y-87099216D01*
X116693284Y-87057547D01*
X116752510Y-87014517D01*
X116919517Y-86847510D01*
X117058343Y-86656433D01*
X117165568Y-86445992D01*
X117238553Y-86221368D01*
X117265107Y-86053713D01*
X117275500Y-85988097D01*
X117275500Y-85979097D01*
X117295185Y-85912058D01*
X117347989Y-85866303D01*
X117417147Y-85856359D01*
X117480703Y-85885384D01*
G37*
%TD.AperFunction*%
%TA.AperFunction,Conductor*%
G36*
X153707292Y-101712275D02*
G01*
X153709963Y-101711614D01*
X153740618Y-101722061D01*
X153771691Y-101731185D01*
X153773492Y-101733264D01*
X153776098Y-101734152D01*
X153796244Y-101759521D01*
X153817446Y-101783989D01*
X153817837Y-101786711D01*
X153819549Y-101788867D01*
X153822780Y-101821087D01*
X153827390Y-101853147D01*
X153826330Y-101856488D01*
X153826521Y-101858388D01*
X153815137Y-101891795D01*
X153748904Y-102021782D01*
X153683242Y-102223869D01*
X153683242Y-102223872D01*
X153650000Y-102433753D01*
X153650000Y-102646246D01*
X153683242Y-102856127D01*
X153683242Y-102856130D01*
X153706654Y-102928182D01*
X153708649Y-102998023D01*
X153672569Y-103057856D01*
X153609868Y-103088684D01*
X153588723Y-103090500D01*
X150898280Y-103090500D01*
X150831241Y-103070815D01*
X150785486Y-103018011D01*
X150775542Y-102948853D01*
X150780349Y-102928181D01*
X150816758Y-102816126D01*
X150850000Y-102606246D01*
X150850000Y-102393753D01*
X150816757Y-102183872D01*
X150816757Y-102183869D01*
X150751095Y-101981782D01*
X150705244Y-101891795D01*
X150692348Y-101823126D01*
X150718624Y-101758386D01*
X150775730Y-101718128D01*
X150815729Y-101711500D01*
X153704652Y-101711500D01*
X153707292Y-101712275D01*
G37*
%TD.AperFunction*%
%TA.AperFunction,Conductor*%
G36*
X164155237Y-99469185D02*
G01*
X164200992Y-99521989D01*
X164210936Y-99591147D01*
X164206129Y-99611818D01*
X164182753Y-99683760D01*
X164149500Y-99893713D01*
X164149500Y-100106286D01*
X164178300Y-100288125D01*
X164182754Y-100316243D01*
X164245872Y-100510500D01*
X164248444Y-100518414D01*
X164344951Y-100707820D01*
X164469890Y-100879786D01*
X164620213Y-101030109D01*
X164792179Y-101155048D01*
X164792181Y-101155049D01*
X164792184Y-101155051D01*
X164801493Y-101159794D01*
X164852290Y-101207766D01*
X164869087Y-101275587D01*
X164846552Y-101341722D01*
X164801505Y-101380760D01*
X164792446Y-101385376D01*
X164792440Y-101385380D01*
X164738282Y-101424727D01*
X164738282Y-101424728D01*
X165370591Y-102057037D01*
X165307007Y-102074075D01*
X165192993Y-102139901D01*
X165099901Y-102232993D01*
X165034075Y-102347007D01*
X165017037Y-102410591D01*
X164384728Y-101778282D01*
X164384727Y-101778282D01*
X164345380Y-101832439D01*
X164248904Y-102021782D01*
X164183242Y-102223869D01*
X164183242Y-102223872D01*
X164150000Y-102433753D01*
X164150000Y-102646246D01*
X164183242Y-102856127D01*
X164183242Y-102856130D01*
X164206654Y-102928182D01*
X164208649Y-102998023D01*
X164172569Y-103057856D01*
X164109868Y-103088684D01*
X164088723Y-103090500D01*
X161911277Y-103090500D01*
X161844238Y-103070815D01*
X161798483Y-103018011D01*
X161788539Y-102948853D01*
X161793346Y-102928182D01*
X161816757Y-102856130D01*
X161816757Y-102856127D01*
X161850000Y-102646246D01*
X161850000Y-102433753D01*
X161816757Y-102223872D01*
X161816757Y-102223869D01*
X161751095Y-102021782D01*
X161654624Y-101832449D01*
X161615270Y-101778282D01*
X161615269Y-101778282D01*
X160982962Y-102410589D01*
X160965925Y-102347007D01*
X160900099Y-102232993D01*
X160807007Y-102139901D01*
X160692993Y-102074075D01*
X160629409Y-102057037D01*
X161299627Y-101386818D01*
X161360950Y-101353333D01*
X161387307Y-101350499D01*
X161397872Y-101350499D01*
X161457483Y-101344091D01*
X161592331Y-101293796D01*
X161707546Y-101207546D01*
X161793796Y-101092331D01*
X161844091Y-100957483D01*
X161850500Y-100897873D01*
X161850499Y-99573499D01*
X161870184Y-99506461D01*
X161922987Y-99460706D01*
X161974499Y-99449500D01*
X164088198Y-99449500D01*
X164155237Y-99469185D01*
G37*
%TD.AperFunction*%
%TA.AperFunction,Conductor*%
G36*
X169226042Y-58550185D02*
G01*
X169246684Y-58566819D01*
X174957683Y-64277819D01*
X174991168Y-64339142D01*
X174986184Y-64408834D01*
X174944312Y-64464767D01*
X174878848Y-64489184D01*
X174870002Y-64489500D01*
X173602129Y-64489500D01*
X173602123Y-64489501D01*
X173542516Y-64495908D01*
X173407671Y-64546202D01*
X173407664Y-64546206D01*
X173292455Y-64632452D01*
X173292452Y-64632455D01*
X173206206Y-64747664D01*
X173206202Y-64747671D01*
X173155908Y-64882517D01*
X173149501Y-64942116D01*
X173149500Y-64942135D01*
X173149500Y-65115500D01*
X173129815Y-65182539D01*
X173077011Y-65228294D01*
X173025500Y-65239500D01*
X166371670Y-65239500D01*
X166371654Y-65239499D01*
X166364058Y-65239499D01*
X166205943Y-65239499D01*
X166129579Y-65259961D01*
X166053214Y-65280423D01*
X166053209Y-65280426D01*
X165916290Y-65359475D01*
X165916282Y-65359481D01*
X142886681Y-88389082D01*
X142825358Y-88422567D01*
X142755666Y-88417583D01*
X142699733Y-88375711D01*
X142675316Y-88310247D01*
X142675000Y-88301401D01*
X142675000Y-88291947D01*
X142638065Y-88058752D01*
X142565102Y-87834197D01*
X142457914Y-87623828D01*
X142397658Y-87540894D01*
X142397658Y-87540893D01*
X141666127Y-88272423D01*
X141650245Y-88213147D01*
X141583102Y-88096853D01*
X141488147Y-88001898D01*
X141371853Y-87934755D01*
X141312574Y-87918871D01*
X142044105Y-87187340D01*
X142042551Y-87167594D01*
X142056915Y-87099216D01*
X142093284Y-87057547D01*
X142152510Y-87014517D01*
X142319517Y-86847510D01*
X142458343Y-86656433D01*
X142565568Y-86445992D01*
X142638553Y-86221368D01*
X142665107Y-86053713D01*
X142675500Y-85988097D01*
X142675500Y-85751902D01*
X142638553Y-85518631D01*
X142565566Y-85294003D01*
X142481949Y-85129896D01*
X142458343Y-85083567D01*
X142319517Y-84892490D01*
X142152510Y-84725483D01*
X142117872Y-84700317D01*
X142075207Y-84644989D01*
X142069228Y-84575375D01*
X142101833Y-84513580D01*
X142117873Y-84499682D01*
X142152510Y-84474517D01*
X142319517Y-84307510D01*
X142458343Y-84116433D01*
X142565568Y-83905992D01*
X142638553Y-83681368D01*
X142665107Y-83513713D01*
X142675500Y-83448097D01*
X142675500Y-83211902D01*
X142638553Y-82978631D01*
X142565566Y-82754003D01*
X142481949Y-82589896D01*
X142458343Y-82543567D01*
X142319517Y-82352490D01*
X142152510Y-82185483D01*
X142117872Y-82160317D01*
X142075207Y-82104989D01*
X142069228Y-82035375D01*
X142101833Y-81973580D01*
X142117873Y-81959682D01*
X142152510Y-81934517D01*
X142319517Y-81767510D01*
X142458343Y-81576433D01*
X142565568Y-81365992D01*
X142638553Y-81141368D01*
X142665107Y-80973713D01*
X142675500Y-80908097D01*
X142675500Y-80671902D01*
X142638553Y-80438631D01*
X142565566Y-80214003D01*
X142481949Y-80049896D01*
X142458343Y-80003567D01*
X142319517Y-79812490D01*
X142152510Y-79645483D01*
X142117872Y-79620317D01*
X142075207Y-79564989D01*
X142069228Y-79495375D01*
X142101833Y-79433580D01*
X142117873Y-79419682D01*
X142152510Y-79394517D01*
X142319517Y-79227510D01*
X142458343Y-79036433D01*
X142565568Y-78825992D01*
X142638553Y-78601368D01*
X142665107Y-78433713D01*
X142675500Y-78368097D01*
X142675500Y-78131902D01*
X142638553Y-77898631D01*
X142565566Y-77674003D01*
X142481949Y-77509896D01*
X142458343Y-77463567D01*
X142319517Y-77272490D01*
X142152510Y-77105483D01*
X142117872Y-77080317D01*
X142075207Y-77024989D01*
X142069228Y-76955375D01*
X142101833Y-76893580D01*
X142117873Y-76879682D01*
X142152510Y-76854517D01*
X142319517Y-76687510D01*
X142458343Y-76496433D01*
X142565568Y-76285992D01*
X142638553Y-76061368D01*
X142665107Y-75893713D01*
X142675500Y-75828097D01*
X142675500Y-75591902D01*
X142638553Y-75358631D01*
X142565566Y-75134003D01*
X142481949Y-74969896D01*
X142458343Y-74923567D01*
X142319517Y-74732490D01*
X142152510Y-74565483D01*
X142117872Y-74540317D01*
X142075207Y-74484989D01*
X142069228Y-74415375D01*
X142101833Y-74353580D01*
X142117873Y-74339682D01*
X142152510Y-74314517D01*
X142319517Y-74147510D01*
X142458343Y-73956433D01*
X142565568Y-73745992D01*
X142638553Y-73521368D01*
X142665107Y-73353713D01*
X142675500Y-73288097D01*
X142675500Y-73051902D01*
X142638553Y-72818631D01*
X142596589Y-72689480D01*
X142565568Y-72594008D01*
X142565566Y-72594005D01*
X142565566Y-72594003D01*
X142481949Y-72429896D01*
X142458343Y-72383567D01*
X142319517Y-72192490D01*
X142152510Y-72025483D01*
X142117872Y-72000317D01*
X142075207Y-71944989D01*
X142069228Y-71875375D01*
X142101833Y-71813580D01*
X142117873Y-71799682D01*
X142152510Y-71774517D01*
X142319517Y-71607510D01*
X142458343Y-71416433D01*
X142565568Y-71205992D01*
X142638553Y-70981368D01*
X142665107Y-70813713D01*
X142675500Y-70748097D01*
X142675500Y-70511902D01*
X142638553Y-70278631D01*
X142565566Y-70054003D01*
X142481949Y-69889896D01*
X142458343Y-69843567D01*
X142319517Y-69652490D01*
X142152510Y-69485483D01*
X142117872Y-69460317D01*
X142075207Y-69404989D01*
X142069228Y-69335375D01*
X142101833Y-69273580D01*
X142117873Y-69259682D01*
X142152510Y-69234517D01*
X142319517Y-69067510D01*
X142458343Y-68876433D01*
X142565568Y-68665992D01*
X142638553Y-68441368D01*
X142648273Y-68380000D01*
X142675500Y-68208097D01*
X142675500Y-67971902D01*
X142638553Y-67738631D01*
X142565566Y-67514003D01*
X142458342Y-67303566D01*
X142390492Y-67210179D01*
X142319517Y-67112490D01*
X142152510Y-66945483D01*
X142117872Y-66920317D01*
X142075207Y-66864989D01*
X142069228Y-66795375D01*
X142101833Y-66733580D01*
X142117873Y-66719682D01*
X142152510Y-66694517D01*
X142319517Y-66527510D01*
X142458343Y-66336433D01*
X142565568Y-66125992D01*
X142638553Y-65901368D01*
X142675500Y-65668097D01*
X142675500Y-65431902D01*
X142638553Y-65198631D01*
X142576534Y-65007758D01*
X142565568Y-64974008D01*
X142565566Y-64974005D01*
X142565566Y-64974003D01*
X142458342Y-64763566D01*
X142319517Y-64572490D01*
X142152510Y-64405483D01*
X142117872Y-64380317D01*
X142075207Y-64324989D01*
X142069228Y-64255375D01*
X142101833Y-64193580D01*
X142117873Y-64179682D01*
X142152510Y-64154517D01*
X142319517Y-63987510D01*
X142458343Y-63796433D01*
X142565568Y-63585992D01*
X142638553Y-63361368D01*
X142675500Y-63128097D01*
X142675500Y-62891902D01*
X142638553Y-62658631D01*
X142565566Y-62434003D01*
X142458342Y-62223566D01*
X142319517Y-62032490D01*
X142152510Y-61865483D01*
X142117872Y-61840317D01*
X142075207Y-61784989D01*
X142069228Y-61715375D01*
X142101833Y-61653580D01*
X142117873Y-61639682D01*
X142152510Y-61614517D01*
X142319517Y-61447510D01*
X142458343Y-61256433D01*
X142565568Y-61045992D01*
X142638553Y-60821368D01*
X142675500Y-60588097D01*
X142675500Y-60351902D01*
X142638553Y-60118631D01*
X142565566Y-59894003D01*
X142458342Y-59683566D01*
X142319517Y-59492490D01*
X142152510Y-59325483D01*
X142117872Y-59300317D01*
X142075207Y-59244989D01*
X142069228Y-59175375D01*
X142101833Y-59113580D01*
X142117873Y-59099682D01*
X142152510Y-59074517D01*
X142319517Y-58907510D01*
X142458343Y-58716433D01*
X142518583Y-58598204D01*
X142566558Y-58547409D01*
X142629068Y-58530500D01*
X169159003Y-58530500D01*
X169226042Y-58550185D01*
G37*
%TD.AperFunction*%
%TA.AperFunction,Conductor*%
G36*
X179692539Y-43520185D02*
G01*
X179738294Y-43572989D01*
X179749500Y-43624500D01*
X179749500Y-108375500D01*
X179729815Y-108442539D01*
X179677011Y-108488294D01*
X179625500Y-108499500D01*
X110874500Y-108499500D01*
X110807461Y-108479815D01*
X110761706Y-108427011D01*
X110750500Y-108375500D01*
X110750500Y-98795258D01*
X114494500Y-98795258D01*
X114494500Y-99024741D01*
X114515102Y-99181219D01*
X114524452Y-99252238D01*
X114577308Y-99449500D01*
X114583842Y-99473887D01*
X114671650Y-99685876D01*
X114671657Y-99685890D01*
X114786392Y-99884617D01*
X114926081Y-100066661D01*
X114926089Y-100066670D01*
X115088330Y-100228911D01*
X115088338Y-100228918D01*
X115270382Y-100368607D01*
X115270385Y-100368608D01*
X115270388Y-100368611D01*
X115469112Y-100483344D01*
X115469117Y-100483346D01*
X115469123Y-100483349D01*
X115533909Y-100510184D01*
X115681113Y-100571158D01*
X115902762Y-100630548D01*
X116130266Y-100660500D01*
X116130273Y-100660500D01*
X116359727Y-100660500D01*
X116359734Y-100660500D01*
X116587238Y-100630548D01*
X116808887Y-100571158D01*
X117020888Y-100483344D01*
X117219612Y-100368611D01*
X117401661Y-100228919D01*
X117401665Y-100228914D01*
X117401670Y-100228911D01*
X117563911Y-100066670D01*
X117563914Y-100066665D01*
X117563919Y-100066661D01*
X117703611Y-99884612D01*
X117818344Y-99685888D01*
X117906158Y-99473887D01*
X117965548Y-99252238D01*
X117995500Y-99024734D01*
X117995500Y-98795266D01*
X117965548Y-98567762D01*
X117906158Y-98346113D01*
X117818344Y-98134112D01*
X117703611Y-97935388D01*
X117703608Y-97935385D01*
X117703607Y-97935382D01*
X117563918Y-97753338D01*
X117563911Y-97753330D01*
X117401670Y-97591089D01*
X117401661Y-97591081D01*
X117219617Y-97451392D01*
X117020890Y-97336657D01*
X117020876Y-97336650D01*
X116808887Y-97248842D01*
X116587238Y-97189452D01*
X116549215Y-97184446D01*
X116359741Y-97159500D01*
X116359734Y-97159500D01*
X116130266Y-97159500D01*
X116130258Y-97159500D01*
X115913715Y-97188009D01*
X115902762Y-97189452D01*
X115809076Y-97214554D01*
X115681112Y-97248842D01*
X115469123Y-97336650D01*
X115469109Y-97336657D01*
X115270382Y-97451392D01*
X115088338Y-97591081D01*
X114926081Y-97753338D01*
X114786392Y-97935382D01*
X114671657Y-98134109D01*
X114671650Y-98134123D01*
X114583842Y-98346112D01*
X114524453Y-98567759D01*
X114524451Y-98567770D01*
X114494500Y-98795258D01*
X110750500Y-98795258D01*
X110750500Y-92853354D01*
X113472498Y-92853354D01*
X113513423Y-93006085D01*
X113542358Y-93056200D01*
X113542359Y-93056204D01*
X113542360Y-93056204D01*
X113592479Y-93143014D01*
X113592481Y-93143017D01*
X113711349Y-93261885D01*
X113711355Y-93261890D01*
X125306839Y-104857374D01*
X125306849Y-104857385D01*
X125311179Y-104861715D01*
X125311180Y-104861716D01*
X125422984Y-104973520D01*
X125422986Y-104973521D01*
X125422990Y-104973524D01*
X125559909Y-105052573D01*
X125559916Y-105052577D01*
X125671719Y-105082534D01*
X125712642Y-105093500D01*
X125712643Y-105093500D01*
X166222291Y-105093500D01*
X166222307Y-105093501D01*
X166229903Y-105093501D01*
X166388014Y-105093501D01*
X166388017Y-105093501D01*
X166540745Y-105052577D01*
X166590864Y-105023639D01*
X166677676Y-104973520D01*
X166789480Y-104861716D01*
X166789480Y-104861714D01*
X166799688Y-104851507D01*
X166799690Y-104851504D01*
X167811506Y-103839688D01*
X167811511Y-103839684D01*
X167821714Y-103829480D01*
X167821716Y-103829480D01*
X167933520Y-103717676D01*
X167991495Y-103617260D01*
X168012577Y-103580745D01*
X168053501Y-103428017D01*
X168053501Y-103269903D01*
X168053501Y-103262308D01*
X168053500Y-103262290D01*
X168053500Y-99333945D01*
X168053500Y-99333943D01*
X168012577Y-99181216D01*
X168012577Y-99181215D01*
X167966916Y-99102128D01*
X167966915Y-99102126D01*
X167966915Y-99102125D01*
X167933524Y-99044290D01*
X167933521Y-99044286D01*
X167933520Y-99044284D01*
X167821716Y-98932480D01*
X167821715Y-98932479D01*
X167817385Y-98928149D01*
X167817374Y-98928139D01*
X166886818Y-97997583D01*
X166853333Y-97936260D01*
X166850499Y-97909902D01*
X166850499Y-96562129D01*
X166850498Y-96562123D01*
X166850497Y-96562116D01*
X166844091Y-96502517D01*
X166793796Y-96367669D01*
X166793795Y-96367668D01*
X166793793Y-96367664D01*
X166707547Y-96252455D01*
X166707544Y-96252452D01*
X166592335Y-96166206D01*
X166592328Y-96166202D01*
X166457482Y-96115908D01*
X166457483Y-96115908D01*
X166397883Y-96109501D01*
X166397881Y-96109500D01*
X166397873Y-96109500D01*
X166397864Y-96109500D01*
X164602129Y-96109500D01*
X164602123Y-96109501D01*
X164542516Y-96115908D01*
X164407671Y-96166202D01*
X164407664Y-96166206D01*
X164292455Y-96252452D01*
X164292452Y-96252455D01*
X164206206Y-96367664D01*
X164206202Y-96367671D01*
X164155908Y-96502517D01*
X164149501Y-96562116D01*
X164149501Y-96562123D01*
X164149500Y-96562135D01*
X164149501Y-98124500D01*
X164129816Y-98191539D01*
X164077013Y-98237294D01*
X164025501Y-98248500D01*
X161737670Y-98248500D01*
X161737654Y-98248499D01*
X161730058Y-98248499D01*
X161571943Y-98248499D01*
X161464587Y-98277265D01*
X161419210Y-98289424D01*
X161419209Y-98289425D01*
X161369096Y-98318359D01*
X161369095Y-98318360D01*
X161325689Y-98343420D01*
X161282285Y-98368479D01*
X161282282Y-98368481D01*
X161170480Y-98480283D01*
X161170480Y-98480284D01*
X161170478Y-98480286D01*
X161083005Y-98567759D01*
X161037582Y-98613182D01*
X160976259Y-98646666D01*
X160949901Y-98649500D01*
X159602129Y-98649500D01*
X159602123Y-98649501D01*
X159542516Y-98655908D01*
X159407671Y-98706202D01*
X159407664Y-98706206D01*
X159292455Y-98792452D01*
X159292452Y-98792455D01*
X159206206Y-98907664D01*
X159206202Y-98907671D01*
X159155908Y-99042517D01*
X159151313Y-99085264D01*
X159149501Y-99102125D01*
X159149500Y-99102135D01*
X159149500Y-100897870D01*
X159149501Y-100897876D01*
X159155908Y-100957483D01*
X159206202Y-101092328D01*
X159206206Y-101092335D01*
X159292452Y-101207544D01*
X159292455Y-101207547D01*
X159407664Y-101293793D01*
X159407671Y-101293797D01*
X159452618Y-101310561D01*
X159542517Y-101344091D01*
X159602127Y-101350500D01*
X159612685Y-101350499D01*
X159679723Y-101370179D01*
X159700372Y-101386818D01*
X160370591Y-102057037D01*
X160307007Y-102074075D01*
X160192993Y-102139901D01*
X160099901Y-102232993D01*
X160034075Y-102347007D01*
X160017037Y-102410591D01*
X159384728Y-101778282D01*
X159384727Y-101778282D01*
X159345380Y-101832439D01*
X159248904Y-102021782D01*
X159183242Y-102223869D01*
X159183242Y-102223872D01*
X159150000Y-102433753D01*
X159150000Y-102646246D01*
X159183242Y-102856127D01*
X159183242Y-102856130D01*
X159206654Y-102928182D01*
X159208649Y-102998023D01*
X159172569Y-103057856D01*
X159109868Y-103088684D01*
X159088723Y-103090500D01*
X156411277Y-103090500D01*
X156344238Y-103070815D01*
X156298483Y-103018011D01*
X156288539Y-102948853D01*
X156293346Y-102928182D01*
X156316757Y-102856130D01*
X156316757Y-102856127D01*
X156350000Y-102646246D01*
X156350000Y-102433753D01*
X156316757Y-102223872D01*
X156316757Y-102223869D01*
X156251095Y-102021782D01*
X156154624Y-101832449D01*
X156115270Y-101778282D01*
X156115269Y-101778282D01*
X155482962Y-102410589D01*
X155465925Y-102347007D01*
X155400099Y-102232993D01*
X155307007Y-102139901D01*
X155192993Y-102074075D01*
X155129407Y-102057036D01*
X155799627Y-101386818D01*
X155860950Y-101353333D01*
X155887308Y-101350499D01*
X155897871Y-101350499D01*
X155897872Y-101350499D01*
X155957483Y-101344091D01*
X156092331Y-101293796D01*
X156207546Y-101207546D01*
X156293796Y-101092331D01*
X156344091Y-100957483D01*
X156350500Y-100897873D01*
X156350499Y-99102128D01*
X156344091Y-99042517D01*
X156337458Y-99024734D01*
X156293797Y-98907671D01*
X156293793Y-98907664D01*
X156207547Y-98792455D01*
X156207544Y-98792452D01*
X156092335Y-98706206D01*
X156092328Y-98706202D01*
X155957482Y-98655908D01*
X155957483Y-98655908D01*
X155897883Y-98649501D01*
X155897881Y-98649500D01*
X155897873Y-98649500D01*
X155897864Y-98649500D01*
X154102129Y-98649500D01*
X154102123Y-98649501D01*
X154042516Y-98655908D01*
X153907671Y-98706202D01*
X153907664Y-98706206D01*
X153792455Y-98792452D01*
X153792452Y-98792455D01*
X153706206Y-98907664D01*
X153706202Y-98907671D01*
X153655908Y-99042517D01*
X153651313Y-99085264D01*
X153649501Y-99102125D01*
X153649500Y-99102135D01*
X153649500Y-100386500D01*
X153629815Y-100453539D01*
X153577011Y-100499294D01*
X153525500Y-100510500D01*
X150974500Y-100510500D01*
X150907461Y-100490815D01*
X150861706Y-100438011D01*
X150850500Y-100386500D01*
X150850499Y-99062129D01*
X150850498Y-99062123D01*
X150850497Y-99062116D01*
X150844091Y-99002517D01*
X150793796Y-98867669D01*
X150793795Y-98867668D01*
X150793793Y-98867664D01*
X150707547Y-98752455D01*
X150707544Y-98752452D01*
X150592335Y-98666206D01*
X150592328Y-98666202D01*
X150457482Y-98615908D01*
X150457483Y-98615908D01*
X150397883Y-98609501D01*
X150397881Y-98609500D01*
X150397873Y-98609500D01*
X150397864Y-98609500D01*
X148602129Y-98609500D01*
X148602123Y-98609501D01*
X148542516Y-98615908D01*
X148407671Y-98666202D01*
X148407664Y-98666206D01*
X148292455Y-98752452D01*
X148292452Y-98752455D01*
X148206206Y-98867664D01*
X148206202Y-98867671D01*
X148155908Y-99002517D01*
X148149501Y-99062116D01*
X148149501Y-99062123D01*
X148149500Y-99062135D01*
X148149500Y-99235500D01*
X148129815Y-99302539D01*
X148077011Y-99348294D01*
X148025500Y-99359500D01*
X144722806Y-99359500D01*
X144655767Y-99339815D01*
X144635125Y-99323181D01*
X118120299Y-72808355D01*
X118120297Y-72808352D01*
X118001426Y-72689481D01*
X118001425Y-72689480D01*
X117914613Y-72639360D01*
X117914613Y-72639359D01*
X117914609Y-72639358D01*
X117864494Y-72610423D01*
X117711766Y-72569499D01*
X117553652Y-72569499D01*
X117546056Y-72569499D01*
X117546040Y-72569500D01*
X117229068Y-72569500D01*
X117162029Y-72549815D01*
X117118583Y-72501795D01*
X117058343Y-72383567D01*
X116919517Y-72192490D01*
X116752510Y-72025483D01*
X116717872Y-72000317D01*
X116675207Y-71944989D01*
X116669228Y-71875375D01*
X116701833Y-71813580D01*
X116717873Y-71799682D01*
X116752510Y-71774517D01*
X116919517Y-71607510D01*
X117058343Y-71416433D01*
X117165568Y-71205992D01*
X117238553Y-70981368D01*
X117265107Y-70813713D01*
X117275500Y-70748097D01*
X117275500Y-70511902D01*
X117238553Y-70278631D01*
X117165566Y-70054003D01*
X117081949Y-69889896D01*
X117058343Y-69843567D01*
X116919517Y-69652490D01*
X116752510Y-69485483D01*
X116717872Y-69460317D01*
X116675207Y-69404989D01*
X116669228Y-69335375D01*
X116701833Y-69273580D01*
X116717873Y-69259682D01*
X116752510Y-69234517D01*
X116919517Y-69067510D01*
X117058343Y-68876433D01*
X117165568Y-68665992D01*
X117238553Y-68441368D01*
X117248273Y-68380000D01*
X117275500Y-68208097D01*
X117275500Y-67971902D01*
X117238553Y-67738631D01*
X117165566Y-67514003D01*
X117058342Y-67303566D01*
X116990492Y-67210179D01*
X116919517Y-67112490D01*
X116752510Y-66945483D01*
X116717872Y-66920317D01*
X116675207Y-66864989D01*
X116669228Y-66795375D01*
X116701833Y-66733580D01*
X116717873Y-66719682D01*
X116752510Y-66694517D01*
X116919517Y-66527510D01*
X117058343Y-66336433D01*
X117165568Y-66125992D01*
X117238553Y-65901368D01*
X117275500Y-65668097D01*
X117275500Y-65431902D01*
X117238553Y-65198631D01*
X117176534Y-65007758D01*
X117165568Y-64974008D01*
X117165566Y-64974005D01*
X117165566Y-64974003D01*
X117058342Y-64763566D01*
X116919517Y-64572490D01*
X116752510Y-64405483D01*
X116717872Y-64380317D01*
X116675207Y-64324989D01*
X116669228Y-64255375D01*
X116701833Y-64193580D01*
X116717873Y-64179682D01*
X116752510Y-64154517D01*
X116919517Y-63987510D01*
X117058343Y-63796433D01*
X117165568Y-63585992D01*
X117238553Y-63361368D01*
X117275500Y-63128097D01*
X117275500Y-62891902D01*
X117238553Y-62658631D01*
X117165566Y-62434003D01*
X117058342Y-62223566D01*
X116919517Y-62032490D01*
X116752510Y-61865483D01*
X116717872Y-61840317D01*
X116675207Y-61784989D01*
X116669228Y-61715375D01*
X116701833Y-61653580D01*
X116717873Y-61639682D01*
X116752510Y-61614517D01*
X116919517Y-61447510D01*
X117058343Y-61256433D01*
X117165568Y-61045992D01*
X117238553Y-60821368D01*
X117275500Y-60588097D01*
X117275500Y-60351902D01*
X117238553Y-60118631D01*
X117165566Y-59894003D01*
X117058342Y-59683566D01*
X116919517Y-59492490D01*
X116752510Y-59325483D01*
X116717872Y-59300317D01*
X116675207Y-59244989D01*
X116669228Y-59175375D01*
X116701833Y-59113580D01*
X116717873Y-59099682D01*
X116752510Y-59074517D01*
X116919517Y-58907510D01*
X117058343Y-58716433D01*
X117165568Y-58505992D01*
X117238553Y-58281368D01*
X117275500Y-58048097D01*
X117275500Y-57811902D01*
X117238553Y-57578631D01*
X117165566Y-57354003D01*
X117058342Y-57143566D01*
X116919517Y-56952490D01*
X116752510Y-56785483D01*
X116717872Y-56760317D01*
X116675207Y-56704989D01*
X116669228Y-56635375D01*
X116701833Y-56573580D01*
X116717873Y-56559682D01*
X116752510Y-56534517D01*
X116837027Y-56450000D01*
X119695000Y-56450000D01*
X137385000Y-56450000D01*
X137385000Y-51845258D01*
X139004500Y-51845258D01*
X139004500Y-52074741D01*
X139029446Y-52264215D01*
X139034452Y-52302238D01*
X139034453Y-52302240D01*
X139093842Y-52523887D01*
X139181650Y-52735876D01*
X139181657Y-52735890D01*
X139296392Y-52934617D01*
X139436081Y-53116661D01*
X139436089Y-53116670D01*
X139598330Y-53278911D01*
X139598338Y-53278918D01*
X139598339Y-53278919D01*
X139648962Y-53317764D01*
X139780382Y-53418607D01*
X139780385Y-53418608D01*
X139780388Y-53418611D01*
X139979112Y-53533344D01*
X139979117Y-53533346D01*
X139979123Y-53533349D01*
X140064632Y-53568768D01*
X140119036Y-53612609D01*
X140141101Y-53678903D01*
X140123822Y-53746602D01*
X140104861Y-53771010D01*
X139505286Y-54370586D01*
X139393481Y-54482390D01*
X139393479Y-54482393D01*
X139343361Y-54569202D01*
X139343359Y-54569204D01*
X139314425Y-54619317D01*
X139314424Y-54619318D01*
X139314423Y-54619323D01*
X139273499Y-54772051D01*
X139273499Y-54772053D01*
X139273499Y-54940154D01*
X139273500Y-54940167D01*
X139273500Y-64162330D01*
X139273499Y-64162348D01*
X139273499Y-64328054D01*
X139273498Y-64328054D01*
X139290794Y-64392602D01*
X139314423Y-64480785D01*
X139317965Y-64486921D01*
X139323153Y-64495907D01*
X139323155Y-64495909D01*
X139393477Y-64617712D01*
X139393481Y-64617717D01*
X139512349Y-64736585D01*
X139512355Y-64736590D01*
X139722200Y-64946435D01*
X139755685Y-65007758D01*
X139752450Y-65072433D01*
X139711447Y-65198628D01*
X139674500Y-65431902D01*
X139674500Y-65668097D01*
X139711446Y-65901368D01*
X139784433Y-66125996D01*
X139891657Y-66336433D01*
X140030483Y-66527510D01*
X140197490Y-66694517D01*
X140232127Y-66719683D01*
X140274792Y-66775013D01*
X140280771Y-66844626D01*
X140248165Y-66906421D01*
X140232130Y-66920315D01*
X140215596Y-66932328D01*
X140197488Y-66945484D01*
X140030485Y-67112487D01*
X140030485Y-67112488D01*
X140030483Y-67112490D01*
X139973806Y-67190499D01*
X139891657Y-67303566D01*
X139784433Y-67514003D01*
X139711446Y-67738631D01*
X139674500Y-67971902D01*
X139674500Y-68208097D01*
X139711446Y-68441368D01*
X139784433Y-68665996D01*
X139842572Y-68780099D01*
X139891657Y-68876433D01*
X140030483Y-69067510D01*
X140197490Y-69234517D01*
X140232127Y-69259683D01*
X140274792Y-69315013D01*
X140280771Y-69384626D01*
X140248165Y-69446421D01*
X140232130Y-69460315D01*
X140214365Y-69473222D01*
X140197488Y-69485484D01*
X140030485Y-69652487D01*
X140030485Y-69652488D01*
X140030483Y-69652490D01*
X139980588Y-69721164D01*
X139891657Y-69843566D01*
X139784433Y-70054003D01*
X139711446Y-70278631D01*
X139674500Y-70511902D01*
X139674500Y-70748097D01*
X139711446Y-70981368D01*
X139784433Y-71205996D01*
X139811066Y-71258265D01*
X139891657Y-71416433D01*
X140030483Y-71607510D01*
X140197490Y-71774517D01*
X140232127Y-71799683D01*
X140274792Y-71855013D01*
X140280771Y-71924626D01*
X140248165Y-71986421D01*
X140232130Y-72000315D01*
X140214365Y-72013222D01*
X140197488Y-72025484D01*
X140030485Y-72192487D01*
X140030485Y-72192488D01*
X140030483Y-72192490D01*
X139980383Y-72261447D01*
X139891657Y-72383566D01*
X139784433Y-72594003D01*
X139711446Y-72818631D01*
X139674500Y-73051902D01*
X139674500Y-73288097D01*
X139711446Y-73521368D01*
X139784433Y-73745996D01*
X139891657Y-73956433D01*
X140030483Y-74147510D01*
X140197490Y-74314517D01*
X140232127Y-74339683D01*
X140274792Y-74395013D01*
X140280771Y-74464626D01*
X140248165Y-74526421D01*
X140232130Y-74540315D01*
X140214365Y-74553222D01*
X140197488Y-74565484D01*
X140030485Y-74732487D01*
X140030485Y-74732488D01*
X140030483Y-74732490D01*
X139986874Y-74792512D01*
X139891657Y-74923566D01*
X139784433Y-75134003D01*
X139711446Y-75358631D01*
X139674500Y-75591902D01*
X139674500Y-75828097D01*
X139711446Y-76061368D01*
X139784433Y-76285996D01*
X139891657Y-76496433D01*
X140030483Y-76687510D01*
X140197490Y-76854517D01*
X140232127Y-76879683D01*
X140274792Y-76935013D01*
X140280771Y-77004626D01*
X140248165Y-77066421D01*
X140232130Y-77080315D01*
X140206966Y-77098598D01*
X140197487Y-77105485D01*
X140030485Y-77272487D01*
X140030485Y-77272488D01*
X140030483Y-77272490D01*
X139986874Y-77332512D01*
X139891657Y-77463566D01*
X139784433Y-77674003D01*
X139711446Y-77898631D01*
X139674500Y-78131902D01*
X139674500Y-78368097D01*
X139711446Y-78601368D01*
X139784433Y-78825996D01*
X139891657Y-79036433D01*
X140030483Y-79227510D01*
X140197490Y-79394517D01*
X140232127Y-79419683D01*
X140274792Y-79475013D01*
X140280771Y-79544626D01*
X140248165Y-79606421D01*
X140232130Y-79620315D01*
X140214365Y-79633222D01*
X140197488Y-79645484D01*
X140030485Y-79812487D01*
X140030485Y-79812488D01*
X140030483Y-79812490D01*
X139986874Y-79872512D01*
X139891657Y-80003566D01*
X139784433Y-80214003D01*
X139711446Y-80438631D01*
X139674500Y-80671902D01*
X139674500Y-80908097D01*
X139711446Y-81141368D01*
X139784433Y-81365996D01*
X139891657Y-81576433D01*
X140030483Y-81767510D01*
X140197490Y-81934517D01*
X140232127Y-81959683D01*
X140274792Y-82015013D01*
X140280771Y-82084626D01*
X140248165Y-82146421D01*
X140232130Y-82160315D01*
X140214365Y-82173222D01*
X140197488Y-82185484D01*
X140030485Y-82352487D01*
X140030485Y-82352488D01*
X140030483Y-82352490D01*
X139986874Y-82412512D01*
X139891657Y-82543566D01*
X139784433Y-82754003D01*
X139711446Y-82978631D01*
X139674500Y-83211902D01*
X139674500Y-83448097D01*
X139711446Y-83681368D01*
X139784433Y-83905996D01*
X139891657Y-84116433D01*
X140030483Y-84307510D01*
X140197490Y-84474517D01*
X140232127Y-84499683D01*
X140274792Y-84555013D01*
X140280771Y-84624626D01*
X140248165Y-84686421D01*
X140232130Y-84700315D01*
X140214365Y-84713222D01*
X140197488Y-84725484D01*
X140030485Y-84892487D01*
X140030485Y-84892488D01*
X140030483Y-84892490D01*
X139986874Y-84952512D01*
X139891657Y-85083566D01*
X139784433Y-85294003D01*
X139711446Y-85518631D01*
X139674500Y-85751902D01*
X139674500Y-85988097D01*
X139711446Y-86221368D01*
X139784433Y-86445996D01*
X139891657Y-86656433D01*
X140030483Y-86847510D01*
X140197490Y-87014517D01*
X140256716Y-87057547D01*
X140299381Y-87112875D01*
X140307448Y-87167593D01*
X140305893Y-87187340D01*
X141037425Y-87918871D01*
X140978147Y-87934755D01*
X140861853Y-88001898D01*
X140766898Y-88096853D01*
X140699755Y-88213147D01*
X140683871Y-88272425D01*
X139952340Y-87540894D01*
X139892084Y-87623830D01*
X139784897Y-87834197D01*
X139711934Y-88058752D01*
X139675000Y-88291947D01*
X139675000Y-88528052D01*
X139711934Y-88761247D01*
X139784897Y-88985802D01*
X139892087Y-89196174D01*
X139982035Y-89319978D01*
X140005515Y-89385784D01*
X139989689Y-89453838D01*
X139940359Y-89501779D01*
X139940454Y-89501953D01*
X139939830Y-89502293D01*
X139939584Y-89502533D01*
X139938511Y-89503013D01*
X139932664Y-89506206D01*
X139817455Y-89592452D01*
X139817452Y-89592455D01*
X139731206Y-89707664D01*
X139731202Y-89707671D01*
X139680908Y-89842517D01*
X139674501Y-89902116D01*
X139674500Y-89902135D01*
X139674500Y-91997870D01*
X139674501Y-91997876D01*
X139680908Y-92057483D01*
X139731202Y-92192328D01*
X139731206Y-92192335D01*
X139817452Y-92307544D01*
X139817455Y-92307547D01*
X139932664Y-92393793D01*
X139932671Y-92393797D01*
X140067517Y-92444091D01*
X140067516Y-92444091D01*
X140074444Y-92444835D01*
X140127127Y-92450500D01*
X142222872Y-92450499D01*
X142282483Y-92444091D01*
X142417331Y-92393796D01*
X142532546Y-92307546D01*
X142618796Y-92192331D01*
X142669091Y-92057483D01*
X142675500Y-91997873D01*
X142675499Y-90350095D01*
X142695184Y-90283057D01*
X142711813Y-90262420D01*
X166497417Y-66476819D01*
X166558740Y-66443334D01*
X166585098Y-66440500D01*
X173025501Y-66440500D01*
X173092540Y-66460185D01*
X173138295Y-66512989D01*
X173149501Y-66564500D01*
X173149501Y-66737876D01*
X173155908Y-66797483D01*
X173206202Y-66932328D01*
X173206206Y-66932335D01*
X173292452Y-67047544D01*
X173292455Y-67047547D01*
X173407664Y-67133793D01*
X173407671Y-67133797D01*
X173452618Y-67150561D01*
X173542517Y-67184091D01*
X173602127Y-67190500D01*
X173612685Y-67190499D01*
X173679723Y-67210179D01*
X173700372Y-67226818D01*
X174370591Y-67897037D01*
X174307007Y-67914075D01*
X174192993Y-67979901D01*
X174099901Y-68072993D01*
X174034075Y-68187007D01*
X174017037Y-68250591D01*
X173384728Y-67618282D01*
X173384727Y-67618282D01*
X173345380Y-67672439D01*
X173248904Y-67861782D01*
X173183242Y-68063869D01*
X173183242Y-68063872D01*
X173150000Y-68273753D01*
X173150000Y-68486246D01*
X173183242Y-68696127D01*
X173183242Y-68696130D01*
X173248904Y-68898217D01*
X173345375Y-69087550D01*
X173384728Y-69141716D01*
X174017037Y-68509408D01*
X174034075Y-68572993D01*
X174099901Y-68687007D01*
X174192993Y-68780099D01*
X174307007Y-68845925D01*
X174370589Y-68862962D01*
X173738282Y-69495269D01*
X173738282Y-69495270D01*
X173792452Y-69534626D01*
X173792451Y-69534626D01*
X173801495Y-69539234D01*
X173852292Y-69587208D01*
X173869087Y-69655029D01*
X173846550Y-69721164D01*
X173801499Y-69760202D01*
X173792182Y-69764949D01*
X173620213Y-69889890D01*
X173469890Y-70040213D01*
X173344951Y-70212179D01*
X173248444Y-70401585D01*
X173182753Y-70603760D01*
X173149500Y-70813713D01*
X173149500Y-71026286D01*
X173177962Y-71205992D01*
X173182754Y-71236243D01*
X173245041Y-71427943D01*
X173248444Y-71438414D01*
X173344951Y-71627820D01*
X173469890Y-71799786D01*
X173620213Y-71950109D01*
X173792182Y-72075050D01*
X173800946Y-72079516D01*
X173851742Y-72127491D01*
X173868536Y-72195312D01*
X173845998Y-72261447D01*
X173800946Y-72300484D01*
X173792182Y-72304949D01*
X173620213Y-72429890D01*
X173469890Y-72580213D01*
X173344951Y-72752179D01*
X173248444Y-72941585D01*
X173182753Y-73143760D01*
X173149500Y-73353713D01*
X173149500Y-73566286D01*
X173182753Y-73776239D01*
X173248444Y-73978414D01*
X173344951Y-74167820D01*
X173469890Y-74339786D01*
X173620213Y-74490109D01*
X173792182Y-74615050D01*
X173800946Y-74619516D01*
X173851742Y-74667491D01*
X173868536Y-74735312D01*
X173845998Y-74801447D01*
X173800946Y-74840484D01*
X173792182Y-74844949D01*
X173620213Y-74969890D01*
X173469890Y-75120213D01*
X173344951Y-75292179D01*
X173248444Y-75481585D01*
X173182753Y-75683760D01*
X173149500Y-75893713D01*
X173149500Y-76106286D01*
X173182753Y-76316239D01*
X173248444Y-76518414D01*
X173344951Y-76707820D01*
X173469890Y-76879786D01*
X173620213Y-77030109D01*
X173792182Y-77155050D01*
X173800946Y-77159516D01*
X173851742Y-77207491D01*
X173868536Y-77275312D01*
X173845998Y-77341447D01*
X173800946Y-77380484D01*
X173792182Y-77384949D01*
X173620213Y-77509890D01*
X173469890Y-77660213D01*
X173344951Y-77832179D01*
X173248444Y-78021585D01*
X173182753Y-78223760D01*
X173149500Y-78433713D01*
X173149500Y-78646286D01*
X173182753Y-78856239D01*
X173248444Y-79058414D01*
X173344951Y-79247820D01*
X173469890Y-79419786D01*
X173620213Y-79570109D01*
X173792182Y-79695050D01*
X173800946Y-79699516D01*
X173851742Y-79747491D01*
X173868536Y-79815312D01*
X173845998Y-79881447D01*
X173800946Y-79920484D01*
X173792182Y-79924949D01*
X173620213Y-80049890D01*
X173469890Y-80200213D01*
X173344951Y-80372179D01*
X173248444Y-80561585D01*
X173182753Y-80763760D01*
X173149500Y-80973713D01*
X173149500Y-81186286D01*
X173182753Y-81396239D01*
X173248444Y-81598414D01*
X173344951Y-81787820D01*
X173469890Y-81959786D01*
X173620213Y-82110109D01*
X173792182Y-82235050D01*
X173800946Y-82239516D01*
X173851742Y-82287491D01*
X173868536Y-82355312D01*
X173845998Y-82421447D01*
X173800946Y-82460484D01*
X173792182Y-82464949D01*
X173620213Y-82589890D01*
X173469890Y-82740213D01*
X173344951Y-82912179D01*
X173248444Y-83101585D01*
X173182753Y-83303760D01*
X173149500Y-83513713D01*
X173149500Y-83726286D01*
X173182753Y-83936239D01*
X173248444Y-84138414D01*
X173344951Y-84327820D01*
X173469890Y-84499786D01*
X173620213Y-84650109D01*
X173792182Y-84775050D01*
X173800946Y-84779516D01*
X173851742Y-84827491D01*
X173868536Y-84895312D01*
X173845998Y-84961447D01*
X173800946Y-85000484D01*
X173792182Y-85004949D01*
X173620213Y-85129890D01*
X173469890Y-85280213D01*
X173344951Y-85452179D01*
X173248444Y-85641585D01*
X173182753Y-85843760D01*
X173149500Y-86053713D01*
X173149500Y-86266286D01*
X173182753Y-86476239D01*
X173248444Y-86678414D01*
X173344951Y-86867820D01*
X173469890Y-87039786D01*
X173620213Y-87190109D01*
X173792182Y-87315050D01*
X173800946Y-87319516D01*
X173851742Y-87367491D01*
X173868536Y-87435312D01*
X173845998Y-87501447D01*
X173800946Y-87540484D01*
X173792182Y-87544949D01*
X173620213Y-87669890D01*
X173469890Y-87820213D01*
X173344951Y-87992179D01*
X173248444Y-88181585D01*
X173182753Y-88383760D01*
X173149500Y-88593713D01*
X173149500Y-88806286D01*
X173177932Y-88985802D01*
X173182754Y-89016243D01*
X173241217Y-89196174D01*
X173248444Y-89218414D01*
X173344951Y-89407820D01*
X173469890Y-89579786D01*
X173620213Y-89730109D01*
X173792179Y-89855048D01*
X173792181Y-89855049D01*
X173792184Y-89855051D01*
X173981588Y-89951557D01*
X174183757Y-90017246D01*
X174393713Y-90050500D01*
X174393714Y-90050500D01*
X174606286Y-90050500D01*
X174606287Y-90050500D01*
X174816243Y-90017246D01*
X175018412Y-89951557D01*
X175207816Y-89855051D01*
X175276045Y-89805480D01*
X175379786Y-89730109D01*
X175379788Y-89730106D01*
X175379792Y-89730104D01*
X175530104Y-89579792D01*
X175530106Y-89579788D01*
X175530109Y-89579786D01*
X175655048Y-89407820D01*
X175655047Y-89407820D01*
X175655051Y-89407816D01*
X175751557Y-89218412D01*
X175817246Y-89016243D01*
X175850500Y-88806287D01*
X175850500Y-88593713D01*
X175817246Y-88383757D01*
X175751557Y-88181588D01*
X175655051Y-87992184D01*
X175655049Y-87992181D01*
X175655048Y-87992179D01*
X175530109Y-87820213D01*
X175379786Y-87669890D01*
X175207820Y-87544951D01*
X175207115Y-87544591D01*
X175199054Y-87540485D01*
X175148259Y-87492512D01*
X175131463Y-87424692D01*
X175153999Y-87358556D01*
X175199054Y-87319515D01*
X175207816Y-87315051D01*
X175282806Y-87260568D01*
X175379786Y-87190109D01*
X175379788Y-87190106D01*
X175379792Y-87190104D01*
X175530104Y-87039792D01*
X175530106Y-87039788D01*
X175530109Y-87039786D01*
X175655048Y-86867820D01*
X175655047Y-86867820D01*
X175655051Y-86867816D01*
X175751557Y-86678412D01*
X175817246Y-86476243D01*
X175850500Y-86266287D01*
X175850500Y-86053713D01*
X175817246Y-85843757D01*
X175751557Y-85641588D01*
X175655051Y-85452184D01*
X175655049Y-85452181D01*
X175655048Y-85452179D01*
X175530109Y-85280213D01*
X175379786Y-85129890D01*
X175207820Y-85004951D01*
X175207115Y-85004591D01*
X175199054Y-85000485D01*
X175148259Y-84952512D01*
X175131463Y-84884692D01*
X175153999Y-84818556D01*
X175199054Y-84779515D01*
X175207816Y-84775051D01*
X175329806Y-84686421D01*
X175379786Y-84650109D01*
X175379788Y-84650106D01*
X175379792Y-84650104D01*
X175530104Y-84499792D01*
X175530106Y-84499788D01*
X175530109Y-84499786D01*
X175655048Y-84327820D01*
X175655047Y-84327820D01*
X175655051Y-84327816D01*
X175751557Y-84138412D01*
X175817246Y-83936243D01*
X175850500Y-83726287D01*
X175850500Y-83513713D01*
X175817246Y-83303757D01*
X175751557Y-83101588D01*
X175655051Y-82912184D01*
X175655049Y-82912181D01*
X175655048Y-82912179D01*
X175530109Y-82740213D01*
X175379786Y-82589890D01*
X175207820Y-82464951D01*
X175207115Y-82464591D01*
X175199054Y-82460485D01*
X175148259Y-82412512D01*
X175131463Y-82344692D01*
X175153999Y-82278556D01*
X175199054Y-82239515D01*
X175207816Y-82235051D01*
X175329806Y-82146421D01*
X175379786Y-82110109D01*
X175379788Y-82110106D01*
X175379792Y-82110104D01*
X175530104Y-81959792D01*
X175530106Y-81959788D01*
X175530109Y-81959786D01*
X175655048Y-81787820D01*
X175655047Y-81787820D01*
X175655051Y-81787816D01*
X175751557Y-81598412D01*
X175817246Y-81396243D01*
X175850500Y-81186287D01*
X175850500Y-80973713D01*
X175817246Y-80763757D01*
X175751557Y-80561588D01*
X175655051Y-80372184D01*
X175655049Y-80372181D01*
X175655048Y-80372179D01*
X175530109Y-80200213D01*
X175379786Y-80049890D01*
X175207820Y-79924951D01*
X175207115Y-79924591D01*
X175199054Y-79920485D01*
X175148259Y-79872512D01*
X175131463Y-79804692D01*
X175153999Y-79738556D01*
X175199054Y-79699515D01*
X175207816Y-79695051D01*
X175329806Y-79606421D01*
X175379786Y-79570109D01*
X175379788Y-79570106D01*
X175379792Y-79570104D01*
X175530104Y-79419792D01*
X175530106Y-79419788D01*
X175530109Y-79419786D01*
X175655048Y-79247820D01*
X175655047Y-79247820D01*
X175655051Y-79247816D01*
X175751557Y-79058412D01*
X175817246Y-78856243D01*
X175850500Y-78646287D01*
X175850500Y-78433713D01*
X175817246Y-78223757D01*
X175751557Y-78021588D01*
X175655051Y-77832184D01*
X175655049Y-77832181D01*
X175655048Y-77832179D01*
X175530109Y-77660213D01*
X175379786Y-77509890D01*
X175207820Y-77384951D01*
X175207115Y-77384591D01*
X175199054Y-77380485D01*
X175148259Y-77332512D01*
X175131463Y-77264692D01*
X175153999Y-77198556D01*
X175199054Y-77159515D01*
X175207816Y-77155051D01*
X175276041Y-77105483D01*
X175379786Y-77030109D01*
X175379788Y-77030106D01*
X175379792Y-77030104D01*
X175530104Y-76879792D01*
X175530106Y-76879788D01*
X175530109Y-76879786D01*
X175655048Y-76707820D01*
X175655047Y-76707820D01*
X175655051Y-76707816D01*
X175751557Y-76518412D01*
X175817246Y-76316243D01*
X175850500Y-76106287D01*
X175850500Y-75893713D01*
X175817246Y-75683757D01*
X175751557Y-75481588D01*
X175655051Y-75292184D01*
X175655049Y-75292181D01*
X175655048Y-75292179D01*
X175530109Y-75120213D01*
X175379786Y-74969890D01*
X175207820Y-74844951D01*
X175207115Y-74844591D01*
X175199054Y-74840485D01*
X175148259Y-74792512D01*
X175131463Y-74724692D01*
X175153999Y-74658556D01*
X175199054Y-74619515D01*
X175207816Y-74615051D01*
X175329806Y-74526421D01*
X175379786Y-74490109D01*
X175379788Y-74490106D01*
X175379792Y-74490104D01*
X175530104Y-74339792D01*
X175530106Y-74339788D01*
X175530109Y-74339786D01*
X175655048Y-74167820D01*
X175655047Y-74167820D01*
X175655051Y-74167816D01*
X175751557Y-73978412D01*
X175817246Y-73776243D01*
X175850500Y-73566287D01*
X175850500Y-73353713D01*
X175817246Y-73143757D01*
X175803506Y-73101473D01*
X175801512Y-73031635D01*
X175833755Y-72975478D01*
X176811506Y-71997728D01*
X176811511Y-71997724D01*
X176821714Y-71987520D01*
X176821716Y-71987520D01*
X176933520Y-71875716D01*
X176991947Y-71774517D01*
X176991949Y-71774515D01*
X177012574Y-71738790D01*
X177012573Y-71738790D01*
X177012577Y-71738785D01*
X177053500Y-71586057D01*
X177053500Y-71427943D01*
X177053500Y-64445859D01*
X177053501Y-64445846D01*
X177053501Y-64277745D01*
X177053501Y-64277743D01*
X177012577Y-64125015D01*
X176968978Y-64049500D01*
X176933520Y-63988084D01*
X176821716Y-63876280D01*
X176821715Y-63876279D01*
X176817385Y-63871949D01*
X176817374Y-63871939D01*
X166672790Y-53727355D01*
X166672788Y-53727352D01*
X166553917Y-53608481D01*
X166553916Y-53608480D01*
X166467104Y-53558360D01*
X166467104Y-53558359D01*
X166467100Y-53558358D01*
X166416985Y-53529423D01*
X166264257Y-53488499D01*
X166106143Y-53488499D01*
X166098547Y-53488499D01*
X166098531Y-53488500D01*
X142001443Y-53488500D01*
X141934404Y-53468815D01*
X141888649Y-53416011D01*
X141878705Y-53346853D01*
X141907730Y-53283297D01*
X141913762Y-53276819D01*
X142073911Y-53116670D01*
X142073914Y-53116665D01*
X142073919Y-53116661D01*
X142213611Y-52934612D01*
X142328344Y-52735888D01*
X142416158Y-52523887D01*
X142475548Y-52302238D01*
X142505500Y-52074734D01*
X142505500Y-51845266D01*
X142475548Y-51617762D01*
X142416158Y-51396113D01*
X142328344Y-51184112D01*
X142213611Y-50985388D01*
X142213608Y-50985385D01*
X142213607Y-50985382D01*
X142073918Y-50803338D01*
X142073911Y-50803330D01*
X141911670Y-50641089D01*
X141911661Y-50641081D01*
X141729617Y-50501392D01*
X141530890Y-50386657D01*
X141530876Y-50386650D01*
X141318887Y-50298842D01*
X141097238Y-50239452D01*
X141059215Y-50234446D01*
X140869741Y-50209500D01*
X140869734Y-50209500D01*
X140640266Y-50209500D01*
X140640258Y-50209500D01*
X140423715Y-50238009D01*
X140412762Y-50239452D01*
X140319076Y-50264554D01*
X140191112Y-50298842D01*
X139979123Y-50386650D01*
X139979109Y-50386657D01*
X139780382Y-50501392D01*
X139598338Y-50641081D01*
X139436081Y-50803338D01*
X139296392Y-50985382D01*
X139181657Y-51184109D01*
X139181650Y-51184123D01*
X139093842Y-51396112D01*
X139034453Y-51617759D01*
X139034451Y-51617770D01*
X139004500Y-51845258D01*
X137385000Y-51845258D01*
X137385000Y-49960000D01*
X119695000Y-49960000D01*
X119695000Y-56450000D01*
X116837027Y-56450000D01*
X116919517Y-56367510D01*
X117058343Y-56176433D01*
X117165568Y-55965992D01*
X117238553Y-55741368D01*
X117275500Y-55508097D01*
X117275500Y-55271902D01*
X117238553Y-55038631D01*
X117203310Y-54930165D01*
X117165568Y-54814008D01*
X117165566Y-54814005D01*
X117165566Y-54814003D01*
X117066371Y-54619323D01*
X117058343Y-54603567D01*
X116919517Y-54412490D01*
X116752510Y-54245483D01*
X116561433Y-54106657D01*
X116350996Y-53999433D01*
X116206338Y-53952431D01*
X116148663Y-53912993D01*
X116121465Y-53848634D01*
X116133380Y-53779788D01*
X116180624Y-53728312D01*
X116244657Y-53710500D01*
X116359727Y-53710500D01*
X116359734Y-53710500D01*
X116587238Y-53680548D01*
X116808887Y-53621158D01*
X117020888Y-53533344D01*
X117219612Y-53418611D01*
X117401661Y-53278919D01*
X117401665Y-53278914D01*
X117401670Y-53278911D01*
X117563911Y-53116670D01*
X117563914Y-53116665D01*
X117563919Y-53116661D01*
X117703611Y-52934612D01*
X117818344Y-52735888D01*
X117906158Y-52523887D01*
X117965548Y-52302238D01*
X117995500Y-52074734D01*
X117995500Y-51845266D01*
X117965548Y-51617762D01*
X117906158Y-51396113D01*
X117818344Y-51184112D01*
X117703611Y-50985388D01*
X117703608Y-50985385D01*
X117703607Y-50985382D01*
X117563918Y-50803338D01*
X117563911Y-50803330D01*
X117401670Y-50641089D01*
X117401661Y-50641081D01*
X117219617Y-50501392D01*
X117020890Y-50386657D01*
X117020876Y-50386650D01*
X116808887Y-50298842D01*
X116587238Y-50239452D01*
X116549215Y-50234446D01*
X116359741Y-50209500D01*
X116359734Y-50209500D01*
X116130266Y-50209500D01*
X116130258Y-50209500D01*
X115913715Y-50238009D01*
X115902762Y-50239452D01*
X115809076Y-50264554D01*
X115681112Y-50298842D01*
X115469123Y-50386650D01*
X115469109Y-50386657D01*
X115270382Y-50501392D01*
X115088338Y-50641081D01*
X114926081Y-50803338D01*
X114786392Y-50985382D01*
X114671657Y-51184109D01*
X114671650Y-51184123D01*
X114583842Y-51396112D01*
X114524453Y-51617759D01*
X114524451Y-51617770D01*
X114494500Y-51845258D01*
X114494500Y-52074741D01*
X114519446Y-52264215D01*
X114524452Y-52302238D01*
X114524453Y-52302240D01*
X114583842Y-52523887D01*
X114671650Y-52735876D01*
X114671657Y-52735890D01*
X114786392Y-52934617D01*
X114926081Y-53116661D01*
X114926089Y-53116670D01*
X115088330Y-53278911D01*
X115088338Y-53278918D01*
X115088339Y-53278919D01*
X115138962Y-53317764D01*
X115270382Y-53418607D01*
X115270385Y-53418608D01*
X115270388Y-53418611D01*
X115469112Y-53533344D01*
X115469117Y-53533346D01*
X115469123Y-53533349D01*
X115554633Y-53568768D01*
X115681113Y-53621158D01*
X115772802Y-53645725D01*
X115832462Y-53682090D01*
X115862991Y-53744937D01*
X115854696Y-53814312D01*
X115810211Y-53868190D01*
X115743659Y-53889465D01*
X115740708Y-53889500D01*
X115656903Y-53889500D01*
X115423631Y-53926446D01*
X115199003Y-53999433D01*
X114988566Y-54106657D01*
X114879550Y-54185862D01*
X114797490Y-54245483D01*
X114797488Y-54245485D01*
X114797487Y-54245485D01*
X114630485Y-54412487D01*
X114630485Y-54412488D01*
X114630483Y-54412490D01*
X114579698Y-54482390D01*
X114491657Y-54603566D01*
X114384433Y-54814003D01*
X114311446Y-55038631D01*
X114274500Y-55271902D01*
X114274500Y-55508097D01*
X114311446Y-55741368D01*
X114384433Y-55965996D01*
X114491657Y-56176433D01*
X114630483Y-56367510D01*
X114797490Y-56534517D01*
X114832127Y-56559683D01*
X114874792Y-56615013D01*
X114880771Y-56684626D01*
X114848165Y-56746421D01*
X114832130Y-56760315D01*
X114814365Y-56773222D01*
X114797488Y-56785484D01*
X114630485Y-56952487D01*
X114630485Y-56952488D01*
X114630483Y-56952490D01*
X114570862Y-57034550D01*
X114491657Y-57143566D01*
X114384433Y-57354003D01*
X114311446Y-57578631D01*
X114274500Y-57811902D01*
X114274500Y-58048097D01*
X114311446Y-58281368D01*
X114384433Y-58505996D01*
X114491657Y-58716433D01*
X114630483Y-58907510D01*
X114797490Y-59074517D01*
X114832127Y-59099683D01*
X114874792Y-59155013D01*
X114880771Y-59224626D01*
X114848165Y-59286421D01*
X114832130Y-59300315D01*
X114814365Y-59313222D01*
X114797488Y-59325484D01*
X114630485Y-59492487D01*
X114630485Y-59492488D01*
X114630483Y-59492490D01*
X114570862Y-59574550D01*
X114491657Y-59683566D01*
X114384433Y-59894003D01*
X114311446Y-60118631D01*
X114274500Y-60351902D01*
X114274500Y-60588097D01*
X114311446Y-60821368D01*
X114384433Y-61045996D01*
X114491657Y-61256433D01*
X114630483Y-61447510D01*
X114797490Y-61614517D01*
X114832127Y-61639683D01*
X114874792Y-61695013D01*
X114880771Y-61764626D01*
X114848165Y-61826421D01*
X114832130Y-61840315D01*
X114814365Y-61853222D01*
X114797488Y-61865484D01*
X114630485Y-62032487D01*
X114630485Y-62032488D01*
X114630483Y-62032490D01*
X114570862Y-62114550D01*
X114491657Y-62223566D01*
X114384433Y-62434003D01*
X114311446Y-62658631D01*
X114274500Y-62891902D01*
X114274500Y-63128097D01*
X114311446Y-63361368D01*
X114384433Y-63585996D01*
X114491657Y-63796433D01*
X114630483Y-63987510D01*
X114797490Y-64154517D01*
X114832127Y-64179683D01*
X114874792Y-64235013D01*
X114880771Y-64304626D01*
X114848165Y-64366421D01*
X114832130Y-64380315D01*
X114814365Y-64393222D01*
X114797488Y-64405484D01*
X114630485Y-64572487D01*
X114630485Y-64572488D01*
X114630483Y-64572490D01*
X114586916Y-64632455D01*
X114491657Y-64763566D01*
X114384433Y-64974003D01*
X114311446Y-65198631D01*
X114274500Y-65431902D01*
X114274500Y-65668097D01*
X114311446Y-65901368D01*
X114384433Y-66125996D01*
X114491657Y-66336433D01*
X114630483Y-66527510D01*
X114797490Y-66694517D01*
X114832127Y-66719683D01*
X114874792Y-66775013D01*
X114880771Y-66844626D01*
X114848165Y-66906421D01*
X114832130Y-66920315D01*
X114815596Y-66932328D01*
X114797488Y-66945484D01*
X114630485Y-67112487D01*
X114630485Y-67112488D01*
X114630483Y-67112490D01*
X114573806Y-67190499D01*
X114491657Y-67303566D01*
X114384433Y-67514003D01*
X114311446Y-67738631D01*
X114274500Y-67971902D01*
X114274500Y-68208097D01*
X114311446Y-68441368D01*
X114384433Y-68665996D01*
X114442572Y-68780099D01*
X114491657Y-68876433D01*
X114630483Y-69067510D01*
X114797490Y-69234517D01*
X114832127Y-69259683D01*
X114874792Y-69315013D01*
X114880771Y-69384626D01*
X114848165Y-69446421D01*
X114832130Y-69460315D01*
X114814365Y-69473222D01*
X114797488Y-69485484D01*
X114630485Y-69652487D01*
X114630485Y-69652488D01*
X114630483Y-69652490D01*
X114580588Y-69721164D01*
X114491657Y-69843566D01*
X114384433Y-70054003D01*
X114311446Y-70278631D01*
X114274500Y-70511902D01*
X114274500Y-70748097D01*
X114311446Y-70981368D01*
X114384433Y-71205996D01*
X114411066Y-71258265D01*
X114491657Y-71416433D01*
X114630483Y-71607510D01*
X114797490Y-71774517D01*
X114832127Y-71799683D01*
X114874792Y-71855013D01*
X114880771Y-71924626D01*
X114848165Y-71986421D01*
X114832130Y-72000315D01*
X114814365Y-72013222D01*
X114797488Y-72025484D01*
X114630485Y-72192487D01*
X114630485Y-72192488D01*
X114630483Y-72192490D01*
X114580383Y-72261447D01*
X114491657Y-72383566D01*
X114384433Y-72594003D01*
X114311446Y-72818631D01*
X114274500Y-73051902D01*
X114274500Y-73288097D01*
X114311446Y-73521368D01*
X114384433Y-73745996D01*
X114491657Y-73956433D01*
X114630483Y-74147510D01*
X114797490Y-74314517D01*
X114832127Y-74339683D01*
X114874792Y-74395013D01*
X114880771Y-74464626D01*
X114848165Y-74526421D01*
X114832130Y-74540315D01*
X114814365Y-74553222D01*
X114797488Y-74565484D01*
X114630485Y-74732487D01*
X114630485Y-74732488D01*
X114630483Y-74732490D01*
X114586874Y-74792512D01*
X114491657Y-74923566D01*
X114384433Y-75134003D01*
X114311446Y-75358631D01*
X114274500Y-75591902D01*
X114274500Y-75828097D01*
X114311447Y-76061369D01*
X114311447Y-76061372D01*
X114352450Y-76187564D01*
X114354445Y-76257405D01*
X114322200Y-76313563D01*
X113704286Y-76931478D01*
X113592481Y-77043282D01*
X113592479Y-77043284D01*
X113579122Y-77066421D01*
X113556570Y-77105483D01*
X113556569Y-77105485D01*
X113513423Y-77180214D01*
X113513423Y-77180215D01*
X113472499Y-77332943D01*
X113472499Y-77491057D01*
X113472499Y-77491059D01*
X113472500Y-77501053D01*
X113472500Y-92687630D01*
X113472499Y-92687648D01*
X113472499Y-92853354D01*
X113472498Y-92853354D01*
X110750500Y-92853354D01*
X110750500Y-43624500D01*
X110770185Y-43557461D01*
X110822989Y-43511706D01*
X110874500Y-43500500D01*
X179625500Y-43500500D01*
X179692539Y-43520185D01*
G37*
%TD.AperFunction*%
%TD*%
M02*
