%TF.GenerationSoftware,KiCad,Pcbnew,9.0.1*%
%TF.CreationDate,2025-04-15T18:06:31+09:00*%
%TF.ProjectId,drone,64726f6e-652e-46b6-9963-61645f706362,rev?*%
%TF.SameCoordinates,Original*%
%TF.FileFunction,Legend,Top*%
%TF.FilePolarity,Positive*%
%FSLAX46Y46*%
G04 Gerber Fmt 4.6, Leading zero omitted, Abs format (unit mm)*
G04 Created by KiCad (PCBNEW 9.0.1) date 2025-04-15 18:06:31*
%MOMM*%
%LPD*%
G01*
G04 APERTURE LIST*
%ADD10C,0.150000*%
%ADD11C,0.120000*%
%ADD12C,0.127000*%
%ADD13C,0.200000*%
G04 APERTURE END LIST*
D10*
X173738095Y-62524819D02*
X173738095Y-63334342D01*
X173738095Y-63334342D02*
X173785714Y-63429580D01*
X173785714Y-63429580D02*
X173833333Y-63477200D01*
X173833333Y-63477200D02*
X173928571Y-63524819D01*
X173928571Y-63524819D02*
X174119047Y-63524819D01*
X174119047Y-63524819D02*
X174214285Y-63477200D01*
X174214285Y-63477200D02*
X174261904Y-63429580D01*
X174261904Y-63429580D02*
X174309523Y-63334342D01*
X174309523Y-63334342D02*
X174309523Y-62524819D01*
X175309523Y-63524819D02*
X174738095Y-63524819D01*
X175023809Y-63524819D02*
X175023809Y-62524819D01*
X175023809Y-62524819D02*
X174928571Y-62667676D01*
X174928571Y-62667676D02*
X174833333Y-62762914D01*
X174833333Y-62762914D02*
X174738095Y-62810533D01*
X163833333Y-94621009D02*
X164166666Y-94621009D01*
X164309523Y-95144819D02*
X163833333Y-95144819D01*
X163833333Y-95144819D02*
X163833333Y-94144819D01*
X163833333Y-94144819D02*
X164309523Y-94144819D01*
X164690476Y-95097200D02*
X164833333Y-95144819D01*
X164833333Y-95144819D02*
X165071428Y-95144819D01*
X165071428Y-95144819D02*
X165166666Y-95097200D01*
X165166666Y-95097200D02*
X165214285Y-95049580D01*
X165214285Y-95049580D02*
X165261904Y-94954342D01*
X165261904Y-94954342D02*
X165261904Y-94859104D01*
X165261904Y-94859104D02*
X165214285Y-94763866D01*
X165214285Y-94763866D02*
X165166666Y-94716247D01*
X165166666Y-94716247D02*
X165071428Y-94668628D01*
X165071428Y-94668628D02*
X164880952Y-94621009D01*
X164880952Y-94621009D02*
X164785714Y-94573390D01*
X164785714Y-94573390D02*
X164738095Y-94525771D01*
X164738095Y-94525771D02*
X164690476Y-94430533D01*
X164690476Y-94430533D02*
X164690476Y-94335295D01*
X164690476Y-94335295D02*
X164738095Y-94240057D01*
X164738095Y-94240057D02*
X164785714Y-94192438D01*
X164785714Y-94192438D02*
X164880952Y-94144819D01*
X164880952Y-94144819D02*
X165119047Y-94144819D01*
X165119047Y-94144819D02*
X165261904Y-94192438D01*
X166261904Y-95049580D02*
X166214285Y-95097200D01*
X166214285Y-95097200D02*
X166071428Y-95144819D01*
X166071428Y-95144819D02*
X165976190Y-95144819D01*
X165976190Y-95144819D02*
X165833333Y-95097200D01*
X165833333Y-95097200D02*
X165738095Y-95001961D01*
X165738095Y-95001961D02*
X165690476Y-94906723D01*
X165690476Y-94906723D02*
X165642857Y-94716247D01*
X165642857Y-94716247D02*
X165642857Y-94573390D01*
X165642857Y-94573390D02*
X165690476Y-94382914D01*
X165690476Y-94382914D02*
X165738095Y-94287676D01*
X165738095Y-94287676D02*
X165833333Y-94192438D01*
X165833333Y-94192438D02*
X165976190Y-94144819D01*
X165976190Y-94144819D02*
X166071428Y-94144819D01*
X166071428Y-94144819D02*
X166214285Y-94192438D01*
X166214285Y-94192438D02*
X166261904Y-94240057D01*
X167119047Y-94478152D02*
X167119047Y-95144819D01*
X166880952Y-94097200D02*
X166642857Y-94811485D01*
X166642857Y-94811485D02*
X167261904Y-94811485D01*
X147833333Y-97121009D02*
X148166666Y-97121009D01*
X148309523Y-97644819D02*
X147833333Y-97644819D01*
X147833333Y-97644819D02*
X147833333Y-96644819D01*
X147833333Y-96644819D02*
X148309523Y-96644819D01*
X148690476Y-97597200D02*
X148833333Y-97644819D01*
X148833333Y-97644819D02*
X149071428Y-97644819D01*
X149071428Y-97644819D02*
X149166666Y-97597200D01*
X149166666Y-97597200D02*
X149214285Y-97549580D01*
X149214285Y-97549580D02*
X149261904Y-97454342D01*
X149261904Y-97454342D02*
X149261904Y-97359104D01*
X149261904Y-97359104D02*
X149214285Y-97263866D01*
X149214285Y-97263866D02*
X149166666Y-97216247D01*
X149166666Y-97216247D02*
X149071428Y-97168628D01*
X149071428Y-97168628D02*
X148880952Y-97121009D01*
X148880952Y-97121009D02*
X148785714Y-97073390D01*
X148785714Y-97073390D02*
X148738095Y-97025771D01*
X148738095Y-97025771D02*
X148690476Y-96930533D01*
X148690476Y-96930533D02*
X148690476Y-96835295D01*
X148690476Y-96835295D02*
X148738095Y-96740057D01*
X148738095Y-96740057D02*
X148785714Y-96692438D01*
X148785714Y-96692438D02*
X148880952Y-96644819D01*
X148880952Y-96644819D02*
X149119047Y-96644819D01*
X149119047Y-96644819D02*
X149261904Y-96692438D01*
X150261904Y-97549580D02*
X150214285Y-97597200D01*
X150214285Y-97597200D02*
X150071428Y-97644819D01*
X150071428Y-97644819D02*
X149976190Y-97644819D01*
X149976190Y-97644819D02*
X149833333Y-97597200D01*
X149833333Y-97597200D02*
X149738095Y-97501961D01*
X149738095Y-97501961D02*
X149690476Y-97406723D01*
X149690476Y-97406723D02*
X149642857Y-97216247D01*
X149642857Y-97216247D02*
X149642857Y-97073390D01*
X149642857Y-97073390D02*
X149690476Y-96882914D01*
X149690476Y-96882914D02*
X149738095Y-96787676D01*
X149738095Y-96787676D02*
X149833333Y-96692438D01*
X149833333Y-96692438D02*
X149976190Y-96644819D01*
X149976190Y-96644819D02*
X150071428Y-96644819D01*
X150071428Y-96644819D02*
X150214285Y-96692438D01*
X150214285Y-96692438D02*
X150261904Y-96740057D01*
X151214285Y-97644819D02*
X150642857Y-97644819D01*
X150928571Y-97644819D02*
X150928571Y-96644819D01*
X150928571Y-96644819D02*
X150833333Y-96787676D01*
X150833333Y-96787676D02*
X150738095Y-96882914D01*
X150738095Y-96882914D02*
X150642857Y-96930533D01*
X153333333Y-97161009D02*
X153666666Y-97161009D01*
X153809523Y-97684819D02*
X153333333Y-97684819D01*
X153333333Y-97684819D02*
X153333333Y-96684819D01*
X153333333Y-96684819D02*
X153809523Y-96684819D01*
X154190476Y-97637200D02*
X154333333Y-97684819D01*
X154333333Y-97684819D02*
X154571428Y-97684819D01*
X154571428Y-97684819D02*
X154666666Y-97637200D01*
X154666666Y-97637200D02*
X154714285Y-97589580D01*
X154714285Y-97589580D02*
X154761904Y-97494342D01*
X154761904Y-97494342D02*
X154761904Y-97399104D01*
X154761904Y-97399104D02*
X154714285Y-97303866D01*
X154714285Y-97303866D02*
X154666666Y-97256247D01*
X154666666Y-97256247D02*
X154571428Y-97208628D01*
X154571428Y-97208628D02*
X154380952Y-97161009D01*
X154380952Y-97161009D02*
X154285714Y-97113390D01*
X154285714Y-97113390D02*
X154238095Y-97065771D01*
X154238095Y-97065771D02*
X154190476Y-96970533D01*
X154190476Y-96970533D02*
X154190476Y-96875295D01*
X154190476Y-96875295D02*
X154238095Y-96780057D01*
X154238095Y-96780057D02*
X154285714Y-96732438D01*
X154285714Y-96732438D02*
X154380952Y-96684819D01*
X154380952Y-96684819D02*
X154619047Y-96684819D01*
X154619047Y-96684819D02*
X154761904Y-96732438D01*
X155761904Y-97589580D02*
X155714285Y-97637200D01*
X155714285Y-97637200D02*
X155571428Y-97684819D01*
X155571428Y-97684819D02*
X155476190Y-97684819D01*
X155476190Y-97684819D02*
X155333333Y-97637200D01*
X155333333Y-97637200D02*
X155238095Y-97541961D01*
X155238095Y-97541961D02*
X155190476Y-97446723D01*
X155190476Y-97446723D02*
X155142857Y-97256247D01*
X155142857Y-97256247D02*
X155142857Y-97113390D01*
X155142857Y-97113390D02*
X155190476Y-96922914D01*
X155190476Y-96922914D02*
X155238095Y-96827676D01*
X155238095Y-96827676D02*
X155333333Y-96732438D01*
X155333333Y-96732438D02*
X155476190Y-96684819D01*
X155476190Y-96684819D02*
X155571428Y-96684819D01*
X155571428Y-96684819D02*
X155714285Y-96732438D01*
X155714285Y-96732438D02*
X155761904Y-96780057D01*
X156142857Y-96780057D02*
X156190476Y-96732438D01*
X156190476Y-96732438D02*
X156285714Y-96684819D01*
X156285714Y-96684819D02*
X156523809Y-96684819D01*
X156523809Y-96684819D02*
X156619047Y-96732438D01*
X156619047Y-96732438D02*
X156666666Y-96780057D01*
X156666666Y-96780057D02*
X156714285Y-96875295D01*
X156714285Y-96875295D02*
X156714285Y-96970533D01*
X156714285Y-96970533D02*
X156666666Y-97113390D01*
X156666666Y-97113390D02*
X156095238Y-97684819D01*
X156095238Y-97684819D02*
X156714285Y-97684819D01*
X139068095Y-102249819D02*
X139068095Y-103059342D01*
X139068095Y-103059342D02*
X139115714Y-103154580D01*
X139115714Y-103154580D02*
X139163333Y-103202200D01*
X139163333Y-103202200D02*
X139258571Y-103249819D01*
X139258571Y-103249819D02*
X139449047Y-103249819D01*
X139449047Y-103249819D02*
X139544285Y-103202200D01*
X139544285Y-103202200D02*
X139591904Y-103154580D01*
X139591904Y-103154580D02*
X139639523Y-103059342D01*
X139639523Y-103059342D02*
X139639523Y-102249819D01*
X140068095Y-102345057D02*
X140115714Y-102297438D01*
X140115714Y-102297438D02*
X140210952Y-102249819D01*
X140210952Y-102249819D02*
X140449047Y-102249819D01*
X140449047Y-102249819D02*
X140544285Y-102297438D01*
X140544285Y-102297438D02*
X140591904Y-102345057D01*
X140591904Y-102345057D02*
X140639523Y-102440295D01*
X140639523Y-102440295D02*
X140639523Y-102535533D01*
X140639523Y-102535533D02*
X140591904Y-102678390D01*
X140591904Y-102678390D02*
X140020476Y-103249819D01*
X140020476Y-103249819D02*
X140639523Y-103249819D01*
X158833333Y-97161009D02*
X159166666Y-97161009D01*
X159309523Y-97684819D02*
X158833333Y-97684819D01*
X158833333Y-97684819D02*
X158833333Y-96684819D01*
X158833333Y-96684819D02*
X159309523Y-96684819D01*
X159690476Y-97637200D02*
X159833333Y-97684819D01*
X159833333Y-97684819D02*
X160071428Y-97684819D01*
X160071428Y-97684819D02*
X160166666Y-97637200D01*
X160166666Y-97637200D02*
X160214285Y-97589580D01*
X160214285Y-97589580D02*
X160261904Y-97494342D01*
X160261904Y-97494342D02*
X160261904Y-97399104D01*
X160261904Y-97399104D02*
X160214285Y-97303866D01*
X160214285Y-97303866D02*
X160166666Y-97256247D01*
X160166666Y-97256247D02*
X160071428Y-97208628D01*
X160071428Y-97208628D02*
X159880952Y-97161009D01*
X159880952Y-97161009D02*
X159785714Y-97113390D01*
X159785714Y-97113390D02*
X159738095Y-97065771D01*
X159738095Y-97065771D02*
X159690476Y-96970533D01*
X159690476Y-96970533D02*
X159690476Y-96875295D01*
X159690476Y-96875295D02*
X159738095Y-96780057D01*
X159738095Y-96780057D02*
X159785714Y-96732438D01*
X159785714Y-96732438D02*
X159880952Y-96684819D01*
X159880952Y-96684819D02*
X160119047Y-96684819D01*
X160119047Y-96684819D02*
X160261904Y-96732438D01*
X161261904Y-97589580D02*
X161214285Y-97637200D01*
X161214285Y-97637200D02*
X161071428Y-97684819D01*
X161071428Y-97684819D02*
X160976190Y-97684819D01*
X160976190Y-97684819D02*
X160833333Y-97637200D01*
X160833333Y-97637200D02*
X160738095Y-97541961D01*
X160738095Y-97541961D02*
X160690476Y-97446723D01*
X160690476Y-97446723D02*
X160642857Y-97256247D01*
X160642857Y-97256247D02*
X160642857Y-97113390D01*
X160642857Y-97113390D02*
X160690476Y-96922914D01*
X160690476Y-96922914D02*
X160738095Y-96827676D01*
X160738095Y-96827676D02*
X160833333Y-96732438D01*
X160833333Y-96732438D02*
X160976190Y-96684819D01*
X160976190Y-96684819D02*
X161071428Y-96684819D01*
X161071428Y-96684819D02*
X161214285Y-96732438D01*
X161214285Y-96732438D02*
X161261904Y-96780057D01*
X161595238Y-96684819D02*
X162214285Y-96684819D01*
X162214285Y-96684819D02*
X161880952Y-97065771D01*
X161880952Y-97065771D02*
X162023809Y-97065771D01*
X162023809Y-97065771D02*
X162119047Y-97113390D01*
X162119047Y-97113390D02*
X162166666Y-97161009D01*
X162166666Y-97161009D02*
X162214285Y-97256247D01*
X162214285Y-97256247D02*
X162214285Y-97494342D01*
X162214285Y-97494342D02*
X162166666Y-97589580D01*
X162166666Y-97589580D02*
X162119047Y-97637200D01*
X162119047Y-97637200D02*
X162023809Y-97684819D01*
X162023809Y-97684819D02*
X161738095Y-97684819D01*
X161738095Y-97684819D02*
X161642857Y-97637200D01*
X161642857Y-97637200D02*
X161595238Y-97589580D01*
D11*
%TO.C,U1*%
X173170000Y-67110000D02*
X173170000Y-90030000D01*
X173170000Y-67110000D02*
X175830000Y-67110000D01*
X173170000Y-90030000D02*
X175830000Y-90030000D01*
X174500000Y-64510000D02*
X175830000Y-64510000D01*
X175830000Y-64510000D02*
X175830000Y-65840000D01*
X175830000Y-67110000D02*
X175830000Y-90030000D01*
%TO.C,ESC4*%
X164170000Y-98730000D02*
X164170000Y-103870000D01*
X164170000Y-98730000D02*
X166830000Y-98730000D01*
X164170000Y-103870000D02*
X166830000Y-103870000D01*
X165500000Y-96130000D02*
X166830000Y-96130000D01*
X166830000Y-96130000D02*
X166830000Y-97460000D01*
X166830000Y-98730000D02*
X166830000Y-103870000D01*
%TO.C,ESC1*%
X148170000Y-101230000D02*
X148170000Y-103830000D01*
X148170000Y-101230000D02*
X150830000Y-101230000D01*
X148170000Y-103830000D02*
X150830000Y-103830000D01*
X149500000Y-98630000D02*
X150830000Y-98630000D01*
X150830000Y-98630000D02*
X150830000Y-99960000D01*
X150830000Y-101230000D02*
X150830000Y-103830000D01*
%TO.C,ESC2*%
X153670000Y-101270000D02*
X153670000Y-103870000D01*
X153670000Y-101270000D02*
X156330000Y-101270000D01*
X153670000Y-103870000D02*
X156330000Y-103870000D01*
X155000000Y-98670000D02*
X156330000Y-98670000D01*
X156330000Y-98670000D02*
X156330000Y-100000000D01*
X156330000Y-101270000D02*
X156330000Y-103870000D01*
D12*
%TO.C,U2*%
X114245000Y-49960000D02*
X142755000Y-49960000D01*
X114245000Y-100910000D02*
X114245000Y-49960000D01*
X114245000Y-100910000D02*
X114245000Y-49960000D01*
X119695000Y-49960000D02*
X114245000Y-49960000D01*
X124975000Y-100910000D02*
X114245000Y-100910000D01*
X131686000Y-100910000D02*
X124975000Y-100910000D01*
X137385000Y-49960000D02*
X119695000Y-49960000D01*
X142755000Y-49960000D02*
X137385000Y-49960000D01*
X142755000Y-49960000D02*
X142755000Y-100910000D01*
X142755000Y-49960000D02*
X142755000Y-100910000D01*
X142755000Y-100910000D02*
X114245000Y-100910000D01*
X142755000Y-100910000D02*
X131686000Y-100910000D01*
D13*
X143425000Y-90950000D02*
G75*
G02*
X143225000Y-90950000I-100000J0D01*
G01*
X143225000Y-90950000D02*
G75*
G02*
X143425000Y-90950000I100000J0D01*
G01*
D11*
%TO.C,ESC3*%
X159170000Y-101270000D02*
X159170000Y-103870000D01*
X159170000Y-101270000D02*
X161830000Y-101270000D01*
X159170000Y-103870000D02*
X161830000Y-103870000D01*
X160500000Y-98670000D02*
X161830000Y-98670000D01*
X161830000Y-98670000D02*
X161830000Y-100000000D01*
X161830000Y-101270000D02*
X161830000Y-103870000D01*
%TD*%
M02*
